<svg width="226" height="241" viewBox="0 0 226 241" fill="none" xmlns="http://www.w3.org/2000/svg">
<g id="recipe_ai 1">
<g clip-path="url(#clip0_1045_8206)">
<g id="Group">
<path id="Vector" d="M168.81 108.88L169.27 119.26" stroke="#FDCFC5" stroke-width="7.49" stroke-linecap="round" stroke-linejoin="round"/>
<path id="Vector_2" d="M181.6 96.43L142.02 141.19C139.49 144 143.52 147.88 146.22 145.15C146.22 145.15 184.3 98.96 184.33 98.93C185.89 97.15 183.31 94.68 181.61 96.42H181.6V96.43Z" fill="#616063"/>
<path id="Vector_3" d="M180.8 99.7899L180.6 99.7499L187.06 64.8899L187.25 64.9299C196.87 66.7099 203.23 75.9699 201.45 85.5899C199.67 95.2099 190.41 101.57 180.79 99.7899H180.8Z" fill="#A6A8AA"/>
<path id="Vector_4" d="M186.38 82.81C184.6 92.45 182.02 100.05 180.63 99.79C179.24 99.53 179.56 91.52 181.34 81.88C183.12 72.24 185.7 64.64 187.09 64.9C188.48 65.16 188.16 73.17 186.38 82.81Z" fill="#C7CACC"/>
<path id="Vector_5" d="M185.35 82.51C183.64 91.7 181.49 98.99 180.54 98.82C179.59 98.65 180.19 91.05 181.88 81.87C183.58 72.68 185.74 65.39 186.69 65.56C187.64 65.73 187.04 73.33 185.35 82.51Z" fill="#6A666F"/>
<path id="Vector_6" d="M95.4902 117.21L131.13 166.6" stroke="#D5E4E8" stroke-width="48.35" stroke-linecap="round" stroke-linejoin="round"/>
<path id="Vector_7" d="M130.69 214.51L129.91 240.34V240.36H91.69C91.69 240.36 91.74 240.35 91.77 240.34H77.97C77.97 240.34 77.98 240.35 77.98 240.36H19.48V240.34C21.15 232.49 23.44 223.79 26.53 214.26H26.54L38.27 214.29L95.43 214.43H99.76L99.77 214.44L109.25 214.46H116.02L116.03 214.47L130.69 214.51Z" fill="#717278"/>
<path id="Vector_8" d="M107.2 240.36H91.6899C91.6899 240.36 91.7399 240.35 91.7699 240.34C94.2199 239.66 96.7999 239.29 99.4599 239.29H99.6499C102.24 239.31 104.74 239.67 107.12 240.34C107.15 240.35 107.17 240.35 107.2 240.36Z" fill="#5C5163"/>
<path id="Vector_9" d="M77.9798 240.36H31.5898C31.5898 240.36 31.5998 240.35 31.6098 240.34C32.9998 238.4 34.6298 236.65 36.4198 235.15C43.7698 229 54.0498 226.68 63.8198 229.93C69.7398 231.91 74.5898 235.64 77.9698 240.34C77.9698 240.35 77.9798 240.35 77.9798 240.36Z" fill="#5C5163"/>
<path id="Vector_10" d="M174.62 132.21C174.58 133.45 166.38 175.8 166.38 175.8C163.99 186.52 153.37 193.27 142.65 190.88C142.27 190.8 141.89 190.7 141.52 190.59C128.73 186.96 124.33 170.97 132.92 160.82L148.33 142.62C149.21 134.65 147.64 117.96 158.36 120.34C167.82 122.45 174.9 122.85 174.62 132.19V132.21Z" fill="#FDCFC5"/>
<path id="Vector_11" d="M26.53 214.25L130.69 214.51L118.01 116.52C116.04 103.16 104.56 93.25 91.05 93.25L24.6 107.62C20.74 108.11 16.99 109.39 13.76 111.58C3.66004 118.43 7.83004 135.93 7.99004 136.59L26.56 214.27V214.25H26.53Z" fill="#D5E4E8"/>
<path id="Vector_12" d="M135.05 240.34V240.36H91.6903C91.6903 240.36 91.7403 240.35 91.7703 240.34H77.9703C77.9703 240.34 77.9803 240.35 77.9803 240.36H35.7803V240.34C36.0103 238.62 36.2203 236.88 36.4203 235.15C37.2103 228.29 37.8303 221.34 38.2703 214.29C38.4303 211.76 38.5603 209.21 38.6703 206.65C39.0703 197.47 39.1603 188.12 38.9003 178.59C38.8503 176.41 38.7703 174.22 38.6703 172.02C38.4703 167.15 38.1703 162.26 37.7803 157.32C45.3403 148.54 50.0603 143.05 57.0103 134.97C57.8303 134.01 58.6903 133.02 59.5803 131.98L62.8103 131.68L96.7203 128.48H96.7303L103.18 127.87L103.56 127.83C103.66 127.93 103.76 128.03 103.86 128.13C110.79 135.15 113.65 139.88 119.55 146.32C121.08 147.99 121.99 150.01 122.61 152.15C122.61 152.15 122.614 152.156 122.62 152.17C122.83 152.89 123.01 153.62 123.17 154.36C123.29 154.93 123.42 155.5 123.54 156.07C126.13 168.14 128.3 180.02 130.05 191.74C130.07 191.89 130.09 192.01 130.11 192.15C130.14 192.3 130.16 192.45 130.18 192.59C130.19 192.61 130.19 192.63 130.18 192.64C130.18 192.64 130.18 192.646 130.18 192.66C130.57 195.22 130.93 197.78 131.26 200.32C133.06 213.81 134.32 227.13 135.05 240.34Z" fill="#24C57A"/>
<path id="Vector_13" d="M122.4 194.15L63.93 201.17L59.23 169.01L117.59 162.52L122.4 194.16V194.15Z" fill="#26AA6C"/>
<path id="Vector_14" d="M24.1699 132.33L45.6799 191.23" stroke="#D5E4E8" stroke-width="48.35" stroke-linecap="round" stroke-linejoin="round"/>
<path id="Vector_15" d="M68.2403 86.4C84.7003 82.16 94.4903 64.92 90.1103 47.89C85.7203 30.87 68.8203 20.5 52.3603 24.75C35.9003 28.99 26.1103 46.23 30.4903 63.26C34.8803 80.28 51.7803 90.65 68.2403 86.4Z" fill="#675042"/>
<path id="Vector_16" d="M47.59 90.0799C33.61 88.3099 26.49 76.3399 28.26 62.3399L29.26 54.4299C31.03 40.4499 43.81 30.5299 57.8 32.3099C71.79 34.0799 81.7 46.8599 79.92 60.8499L78.92 68.7599C77.15 82.7399 61.57 91.8399 47.59 90.0799Z" fill="#FDCFC5"/>
<path id="Vector_17" d="M82.5601 100.06H48.3801L47.7401 90.0799L46.1001 64.9199L76.5701 64.3999L82.5801 100.06H82.5601Z" fill="#FDCFC5"/>
<path id="Vector_18" d="M74.5902 32.1801C84.2102 39.1801 87.9502 50.4501 82.9502 57.35C77.9302 64.2401 66.0702 64.1501 56.4402 57.1401C46.8202 50.1401 43.0802 38.8701 48.0802 31.9701C53.1002 25.0701 64.9602 25.1701 74.5902 32.1801Z" fill="#675042"/>
<path id="Vector_19" d="M86.5702 62.1599C87.6602 66.3699 85.1202 70.6799 80.9102 71.7599C76.7002 72.8399 72.4002 70.3099 71.3102 66.0999C70.2302 61.8899 72.7602 57.5799 76.9702 56.4999C81.1802 55.4199 85.4802 57.9499 86.5702 62.1599Z" fill="#FDCFC5"/>
<path id="Vector_20" d="M77.98 60.0499C80.17 59.4899 82.41 60.8399 82.99 63.0799C83.57 65.3199 82.26 67.5999 80.08 68.1599" stroke="#CE5D4A" stroke-width="1.18" stroke-linecap="round" stroke-linejoin="round"/>
<path id="Vector_21" d="M88.32 31.5099C95.53 24.2999 95.53 12.6199 88.32 5.40994C81.11 -1.80006 69.43 -1.80006 62.22 5.40994C55.01 12.6199 55.01 24.2999 62.22 31.5099C69.43 38.7199 81.11 38.7199 88.32 31.5099Z" fill="#675042"/>
<path id="Vector_22" d="M97.7103 41.24C103.4 35.55 103.4 26.31 97.7103 20.62C92.0203 14.93 82.7803 14.93 77.0903 20.62C71.4003 26.31 71.4003 35.55 77.0903 41.24C82.7903 46.93 92.0203 46.93 97.7103 41.24Z" fill="#675042"/>
<path id="Vector_23" d="M88.6101 96.87C88.6101 104.3 77.9501 110.31 64.8301 110.31C53.4201 110.31 43.8801 105.77 41.6001 99.69L87.9801 93.78C88.3901 94.77 88.6101 95.8 88.6101 96.87Z" fill="#FDCFC5"/>
<path id="Vector_24" d="M48.8701 59.7C48.9501 61.48 49.9901 62.88 51.1801 62.83C52.3701 62.78 53.2901 61.28 53.2001 59.5C53.1101 57.72 52.0801 56.32 50.8801 56.37C49.6901 56.42 48.7701 57.92 48.8601 59.7H48.8701Z" fill="#675757"/>
<path id="Vector_25" d="M30.91 59.3699C30.78 61.0499 31.51 62.48 32.54 62.56C33.58 62.65 34.53 61.3399 34.66 59.6599C34.79 57.9799 34.06 56.55 33.03 56.47C32 56.38 31.04 57.6899 30.91 59.3699Z" fill="#675757"/>
<path id="Vector_26" d="M35.9901 67.3999C36.6501 68.8699 38.1301 70.0199 39.7401 70.2399C39.9501 70.2599 40.1201 70.2799 40.3101 70.1699C40.4701 70.0799 40.6001 69.8999 40.6501 69.7299C40.7201 69.3899 40.5401 68.8799 40.1401 68.8299C39.7901 68.7799 39.4601 68.6799 39.1301 68.5599C39.0501 68.5199 39.2801 68.6199 39.1501 68.5599C39.1001 68.5399 39.0701 68.5199 39.0201 68.4999C38.9501 68.4599 38.8701 68.4299 38.8001 68.3899C38.6401 68.2999 38.5001 68.2099 38.3501 68.0999C38.2401 68.0099 38.4401 68.1699 38.3601 68.0999C38.3201 68.0799 38.3001 68.0499 38.2601 68.0299C38.1901 67.9699 38.1301 67.9099 38.0701 67.8499C37.9501 67.7299 37.8401 67.6099 37.7301 67.4699C37.6201 67.3399 37.8301 67.5999 37.7301 67.4699C37.7101 67.4299 37.6801 67.4099 37.6601 67.3699C37.6101 67.2999 37.5601 67.2199 37.5101 67.1499C37.4101 66.9899 37.3401 66.8299 37.2701 66.6699C37.1101 66.3199 36.5801 66.2099 36.2601 66.3999C35.8901 66.6299 35.8301 67.0299 35.9901 67.4099V67.3999Z" fill="#CE5D4A"/>
<path id="Vector_27" d="M48.9901 71.7999C46.7001 74.3599 43.0001 75.3799 39.7201 74.3299C38.8201 74.0399 38.4301 75.4599 39.3301 75.7399C43.0701 76.9299 47.4101 75.7499 50.0301 72.8299C50.6601 72.1199 49.6301 71.0899 48.9901 71.7899V71.7999Z" fill="#CE5D4A"/>
<path id="Vector_28" d="M32.6899 52.27C32.8499 52.17 33.0099 52.08 33.1799 52L33.0099 52.07C33.2399 51.97 33.4799 51.91 33.7399 51.88L33.5499 51.9C33.8099 51.86 34.0499 51.86 34.3099 51.9L34.1199 51.88C34.1199 51.88 34.1899 51.88 34.2199 51.89C34.4299 51.93 34.6099 51.93 34.7899 51.82C34.9499 51.73 35.0799 51.55 35.1299 51.38C35.1799 51.2 35.1699 50.98 35.0599 50.81C34.9599 50.66 34.7999 50.51 34.6199 50.47C34.1299 50.38 33.6599 50.38 33.1699 50.49C32.7599 50.58 32.3399 50.76 31.9899 50.99C31.8299 51.1 31.7099 51.23 31.6499 51.43C31.5999 51.6 31.6199 51.84 31.7199 52C31.9299 52.32 32.3899 52.49 32.7299 52.27H32.6999H32.6899Z" fill="#675042"/>
<path id="Vector_29" d="M48.9202 51.5298C49.1802 51.5098 49.4302 51.4898 49.7002 51.5098C49.8102 51.5098 49.9602 51.5098 50.0602 51.5498C49.8502 51.4898 50.0702 51.5498 50.1202 51.5598C50.1802 51.5598 50.2402 51.5798 50.3002 51.5998C50.4202 51.6198 50.5602 51.6598 50.6802 51.6998C50.7902 51.7398 50.9402 51.7598 51.0202 51.8198C50.9202 51.7798 50.9102 51.7698 50.9802 51.8098C51.0202 51.8198 51.0402 51.8298 51.0802 51.8598C51.1302 51.8798 51.1802 51.9098 51.2102 51.9298C51.3302 51.9898 51.4502 52.0598 51.5602 52.1398C51.8902 52.3498 52.3902 52.2298 52.5702 51.8698C52.7702 51.4998 52.6602 51.0798 52.3002 50.8598C51.3002 50.2398 50.0702 49.9298 48.9002 50.0798C48.6902 50.0998 48.5402 50.1398 48.3802 50.2998C48.2602 50.4198 48.1602 50.6398 48.1602 50.8198C48.1702 51.1898 48.4902 51.5998 48.8902 51.5498H48.9002L48.9202 51.5298Z" fill="#675042"/>
<path id="Vector_30" opacity="0.5" d="M55.1798 72.14C58.2698 72.14 60.7698 69.98 60.7698 67.32C60.7698 64.66 58.2698 62.5 55.1798 62.5C52.0898 62.5 49.5898 64.66 49.5898 67.32C49.5898 69.98 52.0898 72.14 55.1798 72.14Z" fill="#CE5D4A"/>
<path id="Vector_31" opacity="0.5" d="M29.74 63.3398C29.18 63.3398 28.66 63.4398 28.14 63.5598C27.85 66.8398 28.03 69.9898 28.7 72.8998C29.04 72.9498 29.38 72.9898 29.74 72.9898C32.83 72.9898 35.33 70.8298 35.33 68.1698C35.33 65.5098 32.82 63.3498 29.74 63.3498V63.3398Z" fill="#CE5D4A"/>
<path id="Vector_32" d="M46.9199 89.3199C46.9199 89.3199 56.2299 89.9699 62.2799 86.0999L47.5899 99.6099L46.9199 89.3299V89.3199Z" fill="#DB8577"/>
<path id="Vector_33" d="M104.37 135.24C104.94 137.69 103.83 140.05 101.87 140.5C99.9101 140.96 97.8601 139.35 97.2801 136.91C96.7001 134.46 97.8301 132.1 99.7801 131.65C101.74 131.19 103.79 132.79 104.37 135.24Z" fill="#D3A36A"/>
<path id="Vector_34" d="M105.21 135.03C105.78 137.48 104.67 139.84 102.71 140.29C100.75 140.75 98.7001 139.14 98.1201 136.7C97.5501 134.25 98.6601 131.89 100.62 131.44C102.58 130.98 104.63 132.58 105.21 135.03Z" fill="#FFD7A9"/>
<path id="Vector_35" d="M67.13 141.89C67.7 144.34 66.58 146.7 64.63 147.15C62.67 147.61 60.62 146.01 60.04 143.56C59.47 141.11 60.58 138.75 62.54 138.3C64.5 137.84 66.55 139.44 67.13 141.89Z" fill="#D3A36A"/>
<path id="Vector_36" d="M67.9801 141.69C68.5501 144.14 67.4401 146.5 65.4801 146.95C63.5201 147.41 61.4701 145.81 60.8901 143.36C60.3201 140.91 61.4301 138.55 63.3901 138.1C65.3501 137.64 67.4001 139.24 67.9801 141.69Z" fill="#FFD7A9"/>
<path id="Vector_37" d="M118.02 187.92C118.02 187.92 125.44 186.69 129.89 191.48C131.15 192.83 128.21 203.33 126.09 203.78C123.97 204.23 118.03 187.92 118.03 187.92H118.02Z" fill="#FDCFC5"/>
<path id="Vector_38" d="M145.01 191.47L96.11 222.89C94.37 224.01 92.05 223.5 90.93 221.76C89.81 220.02 90.32 217.7 92.06 216.58L140.96 185.16L145.02 191.47H145.01Z" fill="#434244"/>
<path id="Vector_39" d="M222.39 126.07C222.39 125.98 222.37 125.91 222.33 125.85C221.05 123.86 199.56 135.41 174.32 151.63C149.08 167.84 129.65 182.6 130.92 184.58C130.99 184.69 131.13 184.75 131.32 184.78L142.55 193.11L225.34 140.01L222.48 126.01L222.41 126.06H222.4L222.39 126.07Z" fill="#624F60"/>
<path id="Vector_40" d="M169.9 175.58L225.34 140.02L222.48 126.02L222.41 126.07C222.41 125.98 222.39 125.91 222.35 125.85C221.07 123.86 199.58 135.41 174.34 151.63C171.92 153.19 169.54 154.74 167.23 156.26L169.91 175.58H169.9Z" fill="#756174"/>
<path id="Vector_41" d="M94.89 211.65L50.57 211.87C40 211.15 31.99 202 32.72 191.43C33.44 180.86 42.58 172.86 53.16 173.6L98.1 187.28L94.9 211.67H94.89V211.65Z" fill="#FDCFC5"/>
<path id="Vector_42" d="M98.1102 187.26L120.03 187.71L128.5 202.06C129.61 203.94 129.01 206.34 127.17 207.49L111.38 217.37C109.03 218.38 106.35 218.22 104.13 216.94L94.9102 211.63L98.1102 187.24V187.26Z" fill="#FDCFC5"/>
<path id="Vector_43" d="M170.8 130.53L169.73 120.09L162.76 114.47" stroke="#FDCFC5" stroke-width="7.49" stroke-linecap="round" stroke-linejoin="round"/>
<path id="Vector_44" d="M166.13 135.19L165.06 124.75L158.1 119.12" stroke="#FDCFC5" stroke-width="7.49" stroke-linecap="round" stroke-linejoin="round"/>
<path id="Vector_45" d="M161.47 139.86L160.4 129.42L153.44 123.79" stroke="#FDCFC5" stroke-width="7.49" stroke-linecap="round" stroke-linejoin="round"/>
<path id="Vector_46" d="M156.8 144.52L155.74 134.08L149.53 129.03" stroke="#FDCFC5" stroke-width="7.49" stroke-linecap="round" stroke-linejoin="round"/>
<path id="Vector_47" d="M65.6502 136.56L59.9002 139.92L42.1302 109.45C40.3602 106.42 39.9402 102.75 40.9502 99.3899C41.9102 96.1699 44.3902 94.5299 47.3302 92.9299L47.6002 99.5799C47.6002 99.5799 47.5202 100.68 47.3302 101.3C46.8302 102.92 47.0402 104.63 47.8902 106.09L65.6502 136.56Z" fill="#24C57A"/>
<path id="Vector_48" d="M104.51 129.64L98.4199 132.33L82.1699 95.5299C82.0599 95.3599 81.9499 95.1799 81.8199 95.0299L80.6899 87.8999C82.5799 88.3799 86.5499 89.5799 88.0899 92.4599L88.2099 92.6899L104.52 129.63L104.51 129.64Z" fill="#24C57A"/>
</g>
</g>
</g>
<defs>
<clipPath id="clip0_1045_8206">
<rect width="225.34" height="240.36" rx="16" fill="white"/>
</clipPath>
</defs>
</svg>
