<svg width="261" height="266" viewBox="0 0 261 266" fill="none" xmlns="http://www.w3.org/2000/svg">
<path d="M90.1209 104.006L87.0693 124.303L111.375 127.957L114.426 107.66L90.1209 104.006Z" fill="#C9E3F0"/>
<path d="M109.983 122.643C109.839 123.603 108.943 124.261 107.983 124.117C107.024 123.974 106.365 123.078 106.509 122.118L108.058 111.806C108.201 110.846 109.097 110.188 110.052 110.331C111.012 110.475 111.67 111.37 111.527 112.33L109.978 122.643H109.983Z" fill="white"/>
<path d="M133.841 78.2161L130.789 98.5137L155.094 102.168L158.146 81.8702L133.841 78.2161Z" fill="#C9E3F0"/>
<path d="M153.7 96.8477C153.557 97.8077 152.661 98.4658 151.701 98.3223C150.741 98.1788 150.083 97.2832 150.227 96.3232L151.776 86.0109C151.919 85.0509 152.815 84.3927 153.775 84.5362C154.735 84.6797 155.393 85.5754 155.249 86.5354L153.7 96.8477Z" fill="white"/>
<path d="M83.9491 147.96L63.4778 82.2661C62.4139 78.8468 58.767 76.9318 55.3477 78.0006L14.3904 90.7624C10.9711 91.8263 9.05605 95.4732 10.1249 98.8925L30.5961 164.587C31.66 168.006 35.307 169.921 38.7263 168.852L79.6836 156.09C83.1029 155.026 85.0179 151.379 83.954 147.96H83.9491Z" fill="white"/>
<path d="M13.3607 97.8884C12.8511 96.2554 13.7665 94.5086 15.4044 93.999L56.3618 81.2372C57.9947 80.7275 59.7415 81.643 60.2512 83.2809L80.7224 148.975C81.2321 150.608 80.3166 152.355 78.6787 152.864L37.7214 165.626C36.0835 166.136 34.3417 165.22 33.832 163.587L13.3607 97.8884Z" fill="#E6E7E8"/>
<path d="M26.8102 105.963C26.7904 108.586 28.8984 110.729 31.521 110.753L52.2595 110.922C54.8821 110.941 57.0247 108.833 57.0495 106.211C57.0693 103.588 54.9613 101.446 52.3386 101.421L31.6002 101.253C28.9776 101.233 26.8349 103.341 26.8102 105.963Z" fill="white"/>
<path d="M26.8297 103.925C26.8099 106.548 28.9179 108.69 31.5405 108.715L52.279 108.883C54.9016 108.903 57.0443 106.795 57.069 104.173C57.0888 101.55 54.9808 99.4074 52.3582 99.3876L31.6197 99.2194C28.9971 99.1996 26.8545 101.308 26.8297 103.93V103.925Z" fill="white"/>
<path d="M25.9047 99.5267C25.9047 99.5267 26.6717 95.2414 30.7243 93.4699C34.0645 92.0101 38.7703 91.5895 41.8234 91.5252C44.8716 91.4559 49.5923 91.6687 52.9968 92.985C57.1237 94.5783 58.0787 98.824 58.0787 98.824C59.7364 103.604 55.9905 106.825 53.5658 106.449C48.7214 105.697 35.5589 105.984 30.7491 106.949C28.3442 107.429 24.4597 104.376 25.9096 99.5267H25.9047Z" fill="#EE3135"/>
<mask id="mask0_1045_5748" style="mask-type:luminance" maskUnits="userSpaceOnUse" x="25" y="91" width="34" height="16">
<path d="M25.9042 99.5276C25.9042 99.5276 26.6712 95.2424 30.7238 93.4709C34.064 92.0111 38.7698 91.5905 41.823 91.5262C44.8711 91.4569 49.5918 91.6697 52.9963 92.9859C57.1232 94.5793 58.0782 98.825 58.0782 98.825C59.7359 103.605 55.99 106.826 53.5654 106.45C48.7209 105.698 35.5584 105.985 30.7486 106.95C28.3437 107.43 24.4593 104.377 25.9091 99.5276H25.9042Z" fill="white"/>
</mask>
<g mask="url(#mask0_1045_5748)">
<path d="M53.6353 107.028C58.7221 99.3133 57.1387 94.5827 57.0694 94.3848L56.149 94.7113C56.1639 94.7559 57.6137 99.2242 52.8237 106.493L53.6402 107.028H53.6353Z" fill="#F69788"/>
<path d="M48.1324 106.775C54.0507 99.8032 52.3138 92.4302 52.2396 92.1184L51.2895 92.351C51.3093 92.4203 52.9719 99.5607 47.3853 106.142L48.1324 106.775Z" fill="#F69788"/>
<path d="M44.55 107.117C49.3103 100.634 47.7812 91.4602 47.712 91.0742L46.752 91.2425C46.7668 91.3315 48.2711 100.402 43.7632 106.538L44.55 107.117Z" fill="#F69788"/>
<path d="M38.2606 107.008L39.186 106.691C36.8355 99.828 44.6341 91.5198 44.7132 91.4357L44.0056 90.7627C43.6642 91.119 35.7271 99.5955 38.2656 107.013L38.2606 107.008Z" fill="#F69788"/>
<path d="M31.3425 108.626L32.3124 108.508C31.5355 102.243 37.617 91.7279 37.6764 91.619L36.8302 91.1292C36.5729 91.5696 30.526 102.04 31.3376 108.626H31.3425Z" fill="#F69788"/>
<path d="M25.2415 107.276L26.2163 107.182C25.7462 102.387 32.1048 92.416 32.1691 92.3171L31.3477 91.7876C31.0755 92.2082 24.7417 102.144 25.2415 107.276Z" fill="#F69788"/>
</g>
<path d="M37.3849 148.569C37.3651 151.192 39.4731 153.335 42.0957 153.359L62.8342 153.528C65.4568 153.547 67.5994 151.439 67.6242 148.817C67.644 146.194 65.536 144.052 62.9134 144.027L42.1749 143.859C39.5523 143.834 37.4096 145.947 37.3849 148.569Z" fill="white"/>
<path d="M37.4049 146.53C37.3851 149.153 39.4931 151.295 42.1157 151.32L62.8542 151.488C65.4768 151.513 67.6194 149.4 67.6442 146.778C67.664 144.155 65.556 142.012 62.9334 141.993L42.1949 141.824C39.5723 141.805 37.4247 143.913 37.4049 146.535V146.53Z" fill="white"/>
<path d="M36.4799 142.131C36.4799 142.131 37.2468 137.846 41.2995 136.074C44.6397 134.615 49.3455 134.194 52.3986 134.13C55.4468 134.065 60.1675 134.273 63.572 135.589C67.6989 137.183 68.6539 141.428 68.6539 141.428C70.3116 146.209 66.5657 149.43 64.141 149.054C59.2966 148.302 46.1341 148.589 41.3243 149.554C38.9194 150.034 35.0349 146.981 36.4848 142.131H36.4799Z" fill="#EE3135"/>
<mask id="mask1_1045_5748" style="mask-type:luminance" maskUnits="userSpaceOnUse" x="36" y="134" width="34" height="16">
<path d="M36.4799 142.131C36.4799 142.131 37.2468 137.846 41.2995 136.074C44.6397 134.615 49.3455 134.194 52.3986 134.13C55.4468 134.065 60.1675 134.273 63.572 135.589C67.6989 137.183 68.6539 141.428 68.6539 141.428C70.3116 146.209 66.5657 149.43 64.141 149.054C59.2966 148.302 46.1341 148.589 41.3243 149.554C38.9194 150.034 35.0349 146.981 36.4848 142.131H36.4799Z" fill="white"/>
</mask>
<g mask="url(#mask1_1045_5748)">
<path d="M64.2105 149.633C69.2973 141.914 67.7139 137.183 67.6446 136.99L66.7242 137.317C66.7391 137.362 68.1889 141.83 63.3989 149.099L64.2154 149.638L64.2105 149.633Z" fill="#F69788"/>
<path d="M58.7076 149.376C64.6259 142.404 62.889 135.03 62.8148 134.719L61.8647 134.951C61.8845 135.026 63.5471 142.161 57.9604 148.742L58.7076 149.376Z" fill="#F69788"/>
<path d="M55.1252 149.717C59.8855 143.234 58.3564 134.06 58.2872 133.674L57.3272 133.843C57.342 133.932 58.8463 143.002 54.3384 149.138L55.1252 149.717Z" fill="#F69788"/>
<path d="M48.8356 149.608L49.7609 149.292C47.4105 142.428 55.209 134.12 55.2882 134.036L54.5806 133.363C54.2392 133.719 46.302 142.196 48.8356 149.613V149.608Z" fill="#F69788"/>
<path d="M41.9177 151.231L42.8876 151.113C42.1107 144.848 48.1922 134.333 48.2516 134.224L47.4054 133.734C47.1481 134.175 41.1012 144.645 41.9128 151.231H41.9177Z" fill="#F69788"/>
<path d="M35.8167 149.881L36.7915 149.787C36.3214 144.992 42.68 135.021 42.7443 134.922L41.9229 134.392C41.6507 134.813 35.3169 144.749 35.8167 149.881Z" fill="#F69788"/>
</g>
<path d="M32.5158 127.172C32.496 129.795 34.604 131.938 37.2266 131.962L57.965 132.131C60.5877 132.15 62.7303 130.042 62.755 127.42C62.7748 124.797 60.6668 122.655 58.0442 122.63L37.3057 122.462C34.6831 122.442 32.5405 124.55 32.5158 127.172Z" fill="white"/>
<path d="M32.5358 125.133C32.516 127.756 34.624 129.898 37.2466 129.923L57.9851 130.091C60.6077 130.111 62.7503 128.003 62.775 125.381C62.7948 122.758 60.6868 120.615 58.0642 120.596L37.3258 120.427C34.7032 120.408 32.5605 122.516 32.5358 125.138V125.133Z" fill="white"/>
<path d="M31.6107 120.734C31.6107 120.734 32.3777 116.449 36.4304 114.678C39.7705 113.218 44.4764 112.797 47.5295 112.733C50.5777 112.669 55.2984 112.876 58.7028 114.193C62.8297 115.786 63.7848 120.032 63.7848 120.032C65.4425 124.812 61.6966 128.033 59.2719 127.657C54.4275 126.905 41.2649 127.192 36.4551 128.157C34.0502 128.637 30.1658 125.584 31.6157 120.734H31.6107Z" fill="#EE3135"/>
<mask id="mask2_1045_5748" style="mask-type:luminance" maskUnits="userSpaceOnUse" x="31" y="112" width="34" height="17">
<path d="M31.6107 120.734C31.6107 120.734 32.3777 116.449 36.4304 114.677C39.7705 113.218 44.4764 112.797 47.5295 112.733C50.5777 112.668 55.2984 112.876 58.7028 114.192C62.8297 115.786 63.7848 120.032 63.7848 120.032C65.4425 124.812 61.6966 128.033 59.2719 127.657C54.4275 126.905 41.2649 127.192 36.4551 128.157C34.0502 128.637 30.1658 125.584 31.6157 120.734H31.6107Z" fill="white"/>
</mask>
<g mask="url(#mask2_1045_5748)">
<path d="M59.3418 128.236C64.4287 120.522 62.8452 115.791 62.7759 115.593L61.8556 115.92C61.8704 115.964 63.3203 120.432 58.5303 127.702L59.3467 128.241L59.3418 128.236Z" fill="#F69788"/>
<path d="M53.839 127.978C59.7572 121.006 58.0203 113.633 57.9461 113.321L56.996 113.554C57.0158 113.623 58.6785 120.763 53.0918 127.345L53.839 127.978Z" fill="#F69788"/>
<path d="M50.2565 128.325C55.0168 121.842 53.4878 112.668 53.4185 112.282L52.4585 112.45C52.4734 112.54 53.9777 121.61 49.4697 127.751L50.2565 128.33V128.325Z" fill="#F69788"/>
<path d="M43.9672 128.211L44.8925 127.894C42.542 121.031 50.3406 112.718 50.4198 112.639L49.7122 111.966C49.3707 112.322 41.4336 120.798 43.9721 128.211H43.9672Z" fill="#F69788"/>
<path d="M37.0491 129.834L38.0189 129.715C37.2421 123.45 43.3236 112.935 43.3829 112.826L42.5368 112.336C42.2795 112.777 36.2326 123.248 37.0441 129.834H37.0491Z" fill="#F69788"/>
<path d="M30.948 128.483L31.9228 128.389C31.4527 123.594 37.8113 113.623 37.8757 113.524L37.0542 112.995C36.7821 113.415 30.4482 123.351 30.948 128.483Z" fill="#F69788"/>
</g>
<g opacity="0.3">
<path d="M24.6182 145.412L71.1969 107.033L64.8135 86.5515L18.2349 124.926L24.6182 145.412Z" fill="white"/>
<path d="M28.1957 156.892L74.7744 118.518L71.8252 109.062L25.2515 147.436L28.1957 156.892Z" fill="white"/>
</g>
<path d="M173.479 148.568L198.864 181.341L260.995 132.837V80.4048L173.479 148.568Z" fill="#FFD7A9"/>
<path d="M72.1966 44.7577C72.1966 44.7577 71.1772 10.8319 105.291 0C105.291 0 75.3487 12.3362 75.0617 45.5346L72.1966 44.7577Z" fill="#DA522C"/>
<path d="M66.7977 45.9259C66.7977 45.9259 53.6697 14.6277 18.1357 18.908C18.1357 18.908 50.4978 17.7303 64.5165 47.8211L66.8026 45.9259H66.7977Z" fill="#DA522C"/>
<path d="M111.358 55.342C111.358 55.342 99.3037 68.4403 80.0794 69.2815L78.9858 76.0409C78.9858 76.0409 104.593 81.1674 119.379 64.9369L111.358 55.347V55.342Z" fill="#F15A31"/>
<path d="M114.505 4.61621C114.505 4.61621 111.214 8.30767 109.378 12.8849C106.771 19.387 104.687 34.0637 111.709 41.9365L119.508 41.5902C119.508 41.5902 112.065 24.3749 114.505 4.61621Z" fill="#F15A31"/>
<path d="M116.578 3.08276C116.578 3.08276 135.941 6.77422 136.96 26.5527C137.856 43.9214 124.154 50.4977 123.006 58.0192C121.858 65.5456 117.033 68.8115 111.976 66.8074C104.722 63.9324 108.661 42.6298 108.661 42.6298C108.661 42.6298 109.314 38.5524 115.682 38.7305C121.794 38.9037 120.453 31.0755 119.003 27.577C117.553 24.0785 121.363 23.2126 119.666 19.7883C117.969 16.3641 121.423 15.6565 118.8 12.163C117.142 9.95105 119.943 6.42784 116.588 3.08276H116.578Z" fill="#F37043"/>
<path d="M133.482 23.1626C133.848 26.7155 132.844 29.7291 131.235 29.8924C129.632 30.0557 128.034 27.3093 127.668 23.7564C127.301 20.2035 128.306 17.19 129.914 17.0267C131.517 16.8634 133.116 19.6097 133.482 23.1626Z" fill="#F7966B"/>
<path d="M37.1178 71.4495C37.1178 71.4495 53.5165 78.3771 71.3602 71.1724L75.1556 76.8679C75.1556 76.8679 53.9767 92.1434 33.7925 83.4987L37.1178 71.4445V71.4495Z" fill="#F15A31"/>
<path d="M13.2324 26.5876C13.2324 26.5876 17.7552 28.5818 21.3279 31.9912C26.39 36.8257 34.3766 49.3252 31.2444 59.3951L24.0049 62.3146C24.0049 62.3146 23.6437 43.5604 13.2374 26.5876H13.2324Z" fill="#F15A31"/>
<path d="M10.7085 26.0535C10.7085 26.0535 -5.38352 37.4347 1.88558 55.8573C8.26893 72.0334 23.4603 72.3402 27.6268 78.7137C31.7884 85.0872 37.5383 86.062 41.309 82.1379C46.7224 76.5117 34.3071 58.7571 34.3071 58.7571C34.3071 58.7571 32.0259 55.318 26.3056 58.1187C20.813 60.8106 18.794 53.1259 18.6604 49.3404C18.5318 45.5549 14.7018 46.3466 14.8304 42.5265C14.9541 38.7064 11.52 39.4982 12.4552 35.2277C13.049 32.5309 9.03592 30.4823 10.7085 26.0486V26.0535Z" fill="#F37043"/>
<path d="M3.6474 51.3291C4.78552 54.7138 6.95289 57.0395 8.48192 56.5249C10.011 56.0102 10.3276 52.8483 9.18458 49.4636C8.04647 46.0789 5.8791 43.7532 4.35006 44.2678C2.82103 44.7825 2.50433 47.9445 3.6474 51.3291Z" fill="#F7966B"/>
<path d="M103.837 143.977C103.837 143.977 105.752 145.313 112.269 144.823C118.786 144.328 123.501 143.269 125.614 147.842C128.192 153.409 121.923 164.414 110.853 166.814C99.7839 169.214 93.2769 164.953 93.2769 164.953L103.837 143.977Z" fill="#F15A31"/>
<path d="M79.174 149.325C79.174 149.325 77.9814 151.339 71.8504 153.591C65.7145 155.842 60.9839 156.832 60.9542 161.865C60.9146 168 71.1824 175.418 82.2469 173.018C93.3163 170.618 97.4779 164.042 97.4779 164.042L79.174 149.33V149.325Z" fill="#F15A31"/>
<path d="M91.0893 144.634L83.3501 153.507C83.3501 153.507 89.6543 174.943 97.3044 173.285C104.955 171.627 101.812 149.503 101.812 149.503L91.0893 144.634Z" fill="#E34A27"/>
<path d="M105.133 137.059C106.86 145.006 101.535 152.909 93.2519 154.705C84.9635 156.501 76.8531 151.518 75.1262 143.566C73.4042 135.619 78.7187 127.717 87.0071 125.92C95.2906 124.124 103.411 129.107 105.133 137.054V137.059Z" fill="#F37043"/>
<path d="M102.05 125.89C103.702 133.506 98.6056 141.072 90.6685 142.794C82.7313 144.516 74.9575 139.741 73.3048 132.125C71.652 124.51 76.7488 116.944 84.6859 115.222C92.6231 113.5 100.397 118.275 102.05 125.89Z" fill="#E23E21"/>
<path d="M102.718 120.799C104.564 129.31 98.8682 137.772 89.9958 139.696C81.1235 141.621 72.4342 136.282 70.5885 127.771C68.7427 119.26 74.4383 110.803 83.3106 108.878C92.183 106.953 100.872 112.293 102.718 120.804V120.799Z" fill="#F37043"/>
<path d="M99.4127 108.843C101.179 116.993 95.7262 125.099 87.2249 126.944C78.7237 128.79 70.4006 123.673 68.634 115.524C66.8675 107.369 72.3205 99.2683 80.8218 97.4226C89.323 95.5769 97.6461 100.693 99.4127 108.843Z" fill="#E23E21"/>
<path d="M100.362 103.183C102.371 112.436 96.176 121.635 86.5317 123.728C76.8824 125.822 67.436 120.017 65.427 110.764C63.418 101.51 69.6133 92.3115 79.2625 90.2183C88.9118 88.1252 98.3582 93.9296 100.367 103.183H100.362Z" fill="#F37043"/>
<path d="M82.5387 105.326L65.0859 108.275C65.0859 108.275 67.471 115.465 75.9129 115.227C81.3115 115.074 83.7807 111.031 83.7807 111.031C83.7807 111.031 87.6998 113.689 92.6778 111.59C100.457 108.31 99.6501 100.778 99.6501 100.778L82.5437 105.326H82.5387Z" fill="#E23E21"/>
<path d="M68.4456 40.3736C68.4456 40.3736 52.5466 64.4621 59.3555 95.8444C64.9274 121.521 83.1125 107.978 83.1125 107.978C83.1125 107.978 105.276 112.763 99.7043 87.0859C92.8953 55.7035 68.4456 40.3687 68.4456 40.3687V40.3736Z" fill="#F37043"/>
<path d="M68.5152 66.0016C68.7032 66.8774 68.149 67.7434 67.2731 67.9314C66.3973 68.1195 65.5313 67.5652 65.3433 66.6894C65.1552 65.8135 65.7094 64.9476 66.5853 64.7595C67.4612 64.5715 68.3271 65.1257 68.5152 66.0016Z" fill="#240000"/>
<path d="M66.9912 65.8229C67.0604 66.1346 66.8625 66.4414 66.5508 66.5107C66.239 66.58 65.9322 66.382 65.8629 66.0703C65.7937 65.7586 65.9916 65.4518 66.3033 65.3825C66.6151 65.3132 66.9219 65.5111 66.9912 65.8229Z" fill="white"/>
<path d="M69.3662 64.1548C69.3662 64.1548 71.3356 70.2066 65.4224 73.715C65.4224 73.715 73.2605 71.8395 69.3662 64.1548Z" fill="#E23E21"/>
<path d="M79.0108 63.7238C79.1988 64.5997 80.0648 65.1539 80.9406 64.9658C81.8165 64.7778 82.3707 63.9118 82.1826 63.036C81.9946 62.1601 81.1286 61.6059 80.2528 61.794C79.3769 61.982 78.8227 62.848 79.0108 63.7238Z" fill="#240000"/>
<path d="M80.3224 62.9267C80.3917 63.2385 80.6985 63.4364 81.0102 63.3671C81.322 63.2979 81.5199 62.9911 81.4506 62.6793C81.3814 62.3676 81.0746 62.1696 80.7628 62.2389C80.4511 62.3082 80.2531 62.615 80.3224 62.9267Z" fill="white"/>
<path d="M77.4715 62.3982C77.4715 62.3982 78.184 68.7222 85.0226 69.4644C85.0226 69.4644 77.1102 71.0033 77.4715 62.3982Z" fill="#E23E21"/>
<path d="M74.8984 97.0708C77.4765 101.109 77.8279 105.493 75.6852 106.859C73.5426 108.224 69.7175 106.057 67.1444 102.019C64.5663 97.9813 64.215 93.5971 66.3576 92.2314C68.5002 90.8656 72.3253 93.033 74.9034 97.0708H74.8984Z" fill="#F7966B"/>
<path d="M121.665 144.601C121.665 144.601 154.586 201.645 190.719 166.433C219.459 138.42 192.99 88.5017 192.99 88.5017" fill="#F8ABAD"/>
<path d="M165.581 92.5042C166.105 91.8461 166.358 91.1731 166.229 90.4061C165.823 88.0309 157.767 90.2527 151.79 94.1025C149.395 95.6464 144.753 99.3131 142.155 102.579C140.429 104.746 139.602 106.736 140.923 107.814C141.24 108.007 147.267 111.684 154.398 102.723C154.665 102.391 154.932 102.035 155.199 101.664C155.368 101.431 155.541 101.203 155.719 100.981C157.441 98.8183 159.475 97.2447 161.291 95.9334C163.107 94.627 164.715 93.5879 165.581 92.4993V92.5042Z" fill="#DA1F3D"/>
<path d="M185.374 98.591C188.294 94.9243 187.977 92.2027 183.915 90.8519C175.319 87.9868 165.754 94.8353 157.956 102.96C157.169 103.782 156.461 104.588 155.833 105.38C150.217 112.432 150.538 118.261 151.874 121.076C153.25 123.976 161.751 123.902 165.487 119.201C165.779 118.83 166.046 118.434 166.274 118.008C167.427 115.866 168.669 114.04 169.891 112.511C173.528 107.943 176.764 106.073 176.938 105.974C180.807 103.242 183.648 100.753 185.37 98.591H185.374Z" fill="#DA1F3D"/>
<path d="M141.354 125.258C145.437 120.136 147.366 115.688 144.071 114.074C140.216 112.184 134.273 110.724 130.938 114.762C130.913 114.797 130.883 114.827 130.859 114.861C127.454 119.137 122.59 134.778 124.941 137.218C127.311 139.677 133.57 133.61 133.902 133.289C136.673 130.627 139.291 127.856 141.359 125.258H141.354Z" fill="#DA1F3D"/>
<path d="M150.999 141.192C154.482 136.822 156.377 131.666 156.476 131.399C156.6 131.122 158.951 125.887 149.311 125.303C145.461 125.07 139.058 130.503 134.847 135.793C132.814 138.346 131.294 140.865 130.819 142.696C129.369 148.317 138.341 148.891 145.273 145.942C147.466 145.012 149.39 143.216 150.999 141.197V141.192Z" fill="#DA1F3D"/>
<path d="M183.806 106.251C182.228 107.755 181.08 108.72 180.995 108.834C180.857 109.007 178.645 111.056 175.656 114.084C172.667 117.107 168.897 121.111 165.636 125.203C162.563 129.063 159.94 133.006 158.852 136.282C158.06 138.667 156.892 140.736 155.467 142.527C150.746 148.455 143.205 151.256 137.064 151.934C124.258 153.349 109.408 139.672 127.9 111.813C127.934 111.758 128.602 110.749 129.968 109.037C135.931 101.55 154.532 81.6576 182.317 84.0328C197.854 85.3639 194.485 93.7909 189.18 100.456C187.394 102.703 185.39 104.742 183.806 106.251ZM157.961 102.955C157.174 103.777 156.467 104.583 155.838 105.375C150.222 112.426 150.543 118.255 151.879 121.071C153.255 123.971 161.756 123.897 165.492 119.196C165.784 118.825 166.051 118.429 166.279 118.003C167.432 115.86 168.674 114.035 169.896 112.505C173.533 107.938 176.77 106.068 176.943 105.969C180.812 103.237 183.653 100.748 185.375 98.5858C188.294 94.9191 187.978 92.1975 183.915 90.8466C175.32 87.9816 165.755 94.8301 157.956 102.955M130.943 114.708C130.918 114.742 130.889 114.772 130.859 114.806C127.454 119.082 122.59 134.724 124.946 137.163C127.316 139.622 133.576 133.556 133.907 133.234C136.678 130.567 139.296 127.801 141.359 125.203C145.437 120.081 147.372 115.633 144.076 114.02C140.221 112.129 134.278 110.67 130.943 114.708ZM145.278 145.882C147.47 144.952 149.395 143.155 151.004 141.137C154.487 136.767 156.382 131.611 156.481 131.344C156.605 131.067 158.956 125.831 149.316 125.247C145.466 125.015 139.063 130.448 134.852 135.733C132.818 138.286 131.299 140.805 130.824 142.636C129.374 148.257 138.346 148.831 145.278 145.882ZM151.785 94.0977C149.39 95.6416 144.749 99.3083 142.151 102.574C140.424 104.742 139.598 106.731 140.919 107.81C141.236 108.003 147.263 111.679 154.393 102.718C154.66 102.386 154.928 102.03 155.195 101.659C155.363 101.426 155.536 101.199 155.714 100.976C157.436 98.8135 159.47 97.2399 161.286 95.9286C163.102 94.6222 164.71 93.5831 165.576 92.4944C166.101 91.8363 166.353 91.1633 166.225 90.3963C165.819 88.0211 157.763 90.2429 151.785 94.0927" fill="#FBD4DA"/>
<path d="M192.931 111.857C189.848 112.243 187.983 117.612 188.765 123.851C189.546 130.091 192.674 134.837 195.757 134.451C198.839 134.065 200.705 128.696 199.923 122.456C199.141 116.216 196.014 111.476 192.931 111.857Z" fill="#FBD4DA"/>
<path d="M150.745 129.905L147.838 150.224L172.169 153.704L175.075 133.385L150.745 129.905Z" fill="#E1F4FD"/>
<path d="M170.733 148.386C170.594 149.346 169.703 150.014 168.748 149.875C167.788 149.737 167.12 148.846 167.259 147.886L168.734 137.564C168.872 136.604 169.758 135.936 170.718 136.074C171.678 136.213 172.346 137.104 172.207 138.059L170.733 148.381V148.386Z" fill="white"/>
<path d="M66.3448 126.151L63.4385 146.47L87.7692 149.95L90.6755 129.631L66.3448 126.151Z" fill="#E1F4FD"/>
<path d="M86.3435 144.634C86.2049 145.594 85.3142 146.262 84.3592 146.123C83.3992 145.985 82.7312 145.094 82.8698 144.134L84.3444 133.812C84.4829 132.852 85.3687 132.184 86.3286 132.322C87.2886 132.461 87.9566 133.352 87.8181 134.307L86.3435 144.629V144.634Z" fill="white"/>
<path d="M125.065 150.765H120.225C120.225 150.765 111.184 158.9 115.138 174.522C115.138 174.522 120.002 172.112 122.645 167.362C125.287 172.112 130.151 174.522 130.151 174.522C134.105 158.9 125.065 150.765 125.065 150.765Z" fill="#162B75"/>
<path d="M119.864 70.3992C119.864 70.3992 102.426 80.469 103.682 113.732C104.915 146.252 122.922 155.708 122.922 155.708C122.922 155.708 125.44 149.869 131.73 140.878C138.019 131.887 144.486 118.502 143.235 105.013C141.077 81.7457 119.859 70.3992 119.859 70.3992H119.864Z" fill="white"/>
<path d="M119.864 70.3992C119.864 70.3992 94.0681 104.968 122.645 154.684L127.405 143.239L138.935 113.054L138.197 88.9109C138.197 88.9109 133.68 77.6188 119.869 70.4041L119.864 70.3992Z" fill="#7BAFDE"/>
<path d="M147.183 104.018C147.183 104.018 145.629 105.859 148.455 111.154C148.455 111.154 146.228 112.92 147.495 117.988C147.495 117.988 144.956 118.824 145.065 123.96C145.065 123.96 142.675 124.886 143.012 130.423C143.012 130.423 140.102 129.671 139.3 134.703C139.3 134.703 137.178 134.55 136.802 139.156C136.802 139.156 134.55 139.612 134.164 142.883C134.164 142.883 131.339 142.888 130.923 146.752L129.409 139.721L139.726 108.2L140.389 99.8271L143.086 101.084L147.178 104.013L147.183 104.018Z" fill="#7BAFDE"/>
<path d="M141.814 99.4561L147.183 104.018L141.814 100.975V99.4561Z" fill="#374EA2"/>
<path d="M143.086 106.592L148.455 111.154L143.086 108.111V106.592Z" fill="#374EA2"/>
<path d="M143.2 112.401L147.495 117.988L142.883 113.89L143.2 112.401Z" fill="#374EA2"/>
<path d="M142.042 117.596L145.066 123.96L141.419 118.982L142.042 117.596Z" fill="#374EA2"/>
<path d="M140.449 123.861L143.012 130.423L139.726 125.197L140.449 123.861Z" fill="#374EA2"/>
<path d="M138.89 127.672L139.301 134.703L137.787 128.721L138.89 127.672Z" fill="#374EA2"/>
<path d="M136.386 132.125L136.802 139.157L135.288 133.174L136.386 132.125Z" fill="#374EA2"/>
<path d="M133.754 135.85L134.165 142.882L132.655 136.899L133.754 135.85Z" fill="#374EA2"/>
<path d="M130.512 139.721L130.923 146.752L129.414 140.775L130.512 139.721Z" fill="#374EA2"/>
<path d="M125.811 82.5724C125.539 83.8837 124.282 84.7299 123.011 84.4627C121.739 84.1955 120.927 82.9188 121.2 81.6075C121.472 80.2962 122.729 79.45 124 79.7173C125.272 79.9845 126.084 81.2611 125.811 82.5724Z" fill="white"/>
<path d="M124.94 82.3898C124.772 83.2013 123.99 83.7308 123.199 83.5626C122.407 83.3943 121.902 82.6026 122.07 81.7911C122.239 80.9746 123.021 80.4501 123.812 80.6183C124.604 80.7816 125.109 81.5783 124.936 82.3898H124.94Z" fill="#414042"/>
<path d="M124.935 81.6672C124.881 81.9196 124.644 82.0779 124.401 82.0284C124.159 81.9789 124 81.7315 124.055 81.4792C124.109 81.2268 124.347 81.0684 124.589 81.1179C124.832 81.1674 124.985 81.4148 124.935 81.6622V81.6672Z" fill="white"/>
<path d="M143.24 105.013C142.661 98.7975 140.726 93.4285 138.197 88.9058L134.026 91.5482L131.725 92.1519C133.437 95.9373 134.689 100.223 135.134 105.013C136.386 118.502 130.24 130.972 124.599 140.383C120.225 147.687 122.922 155.703 122.922 155.703C122.922 155.703 125.441 149.864 131.73 140.873C138.019 131.882 144.487 118.497 143.235 105.008L143.24 105.013Z" fill="#374EA2"/>
<path d="M113.02 92.662C113.02 92.662 128.088 99.1789 138.192 88.9111C138.192 88.9111 130.339 94.1465 113.02 92.662Z" fill="#162B75"/>
<path d="M114.292 99.7576C114.292 99.7576 116.068 100.658 120.502 99.7576C120.502 99.7576 124.559 112.529 121.135 122.555C121.135 122.555 120.626 113.816 113.025 107.225C113.025 107.225 114.549 102.687 114.292 99.7576Z" fill="#374EA2"/>
<path d="M123.49 120.313L99.6138 126.146L104.485 146.086L128.362 140.252L123.49 120.313Z" fill="#E1F4FD"/>
<path d="M125.065 135.865C125.292 136.805 124.718 137.755 123.778 137.988C122.838 138.216 121.888 137.642 121.655 136.701L119.181 126.572C118.949 125.632 119.528 124.682 120.468 124.449C121.408 124.217 122.358 124.796 122.591 125.736L125.065 135.865Z" fill="white"/>
<path d="M153.335 144.516H26.7465C24.5929 144.516 22.8472 146.261 22.8472 148.415V252.622C22.8472 254.775 24.5929 256.521 26.7465 256.521H153.335C155.488 256.521 157.234 254.775 157.234 252.622V148.415C157.234 146.261 155.488 144.516 153.335 144.516Z" fill="white"/>
<path d="M202.981 144.516H157.233V256.521H202.981V144.516Z" fill="#E6E7E8"/>
<path d="M157.234 139.879H22.8472V162.527H157.234V139.879Z" fill="#24C57A"/>
<path d="M203.461 139.879H157.233V162.527H203.461V139.879Z" fill="#17A562"/>
<path d="M206.029 208.972C206.029 208.972 195.108 208.611 190.798 208.032C186.483 207.453 181.817 209.235 181.817 209.235C181.817 209.235 178.828 210.759 169.491 216.593C160.356 222.303 157.684 221.808 153.582 229.924C149.836 237.331 144.452 241.557 148.267 243.467C152.082 245.377 165.517 242.29 169.545 232.141C169.545 232.141 165.007 244.571 158.189 251.508C151.37 258.451 154.641 262.751 156.585 264.547C160.148 267.838 168.644 261.395 168.644 261.395C168.644 261.395 174.058 267.719 182.406 261.271C182.406 261.271 187.3 264.522 193.005 259.604C193.005 259.604 198.29 262.553 204.614 255.126C210.938 247.698 219.716 229.241 219.716 229.241L206.024 208.967L206.029 208.972Z" fill="#FCD2C1"/>
<path d="M196.236 204.945L221.616 237.717L261 207.221V154.788L196.236 204.945Z" fill="#FFD7A9"/>
</svg>
