<svg width="23" height="28" viewBox="0 0 23 28" fill="none" xmlns="http://www.w3.org/2000/svg">
<path d="M14.5451 11.07C15.3726 11.3975 16.5074 11.5915 17.3882 11.5915C13.0356 11.5915 8.9467 16.2988 8.9467 21.8467C8.9467 16.2988 4.85266 11.5915 0.500048 11.5915C4.85266 11.5915 8.9467 7.38849 8.9467 1C8.9467 4.86257 10.0401 6.565 11.6301 8.685" stroke="black" stroke-width="0.9" stroke-linecap="round" stroke-linejoin="round"/>
<path d="M12.4248 9.47998C12.9548 10.01 13.4289 10.3701 13.7498 10.54" stroke="#ECBF2B" stroke-width="0.9" stroke-linecap="round" stroke-linejoin="round"/>
<path d="M21.7002 21.9374C19.4776 21.9374 17.3897 19.6578 17.3897 16.1929C17.3897 19.6578 15.2991 21.9374 13.0765 21.9374C15.2991 21.9374 17.3897 24.4905 17.3897 27.4995C17.3897 24.4905 19.4776 21.9374 21.7002 21.9374Z" fill="#24C57A" stroke="#24C57A" stroke-width="0.9" stroke-linejoin="round"/>
</svg>
