<svg width="53" height="31" viewBox="1 0 53 31" fill="none" xmlns="http://www.w3.org/2000/svg">
<path d="M19.2968 29.4736C20.4634 29.4736 21.5823 29.0129 22.4072 28.1929C23.2322 27.3729 23.6956 26.2608 23.6956 25.1011C23.6956 23.9415 23.2322 22.8293 22.4072 22.0093C21.5823 21.1893 20.4634 20.7286 19.2968 20.7286C18.1301 20.7286 17.0113 21.1893 16.1863 22.0093C15.3614 22.8293 14.8979 23.9415 14.8979 25.1011C14.8979 26.2608 15.3614 27.3729 16.1863 28.1929C17.0113 29.0129 18.1301 29.4736 19.2968 29.4736ZM41.2909 29.4736C42.4576 29.4736 43.5764 29.0129 44.4014 28.1929C45.2263 27.3729 45.6897 26.2608 45.6897 25.1011C45.6897 23.9415 45.2263 22.8293 44.4014 22.0093C43.5764 21.1893 42.4576 20.7286 41.2909 20.7286C40.1243 20.7286 39.0054 21.1893 38.1805 22.0093C37.3555 22.8293 36.8921 23.9415 36.8921 25.1011C36.8921 26.2608 37.3555 27.3729 38.1805 28.1929C39.0054 29.0129 40.1243 29.4736 41.2909 29.4736Z" stroke="black" strokeWidth="1.2" stroke-miterlimit="1.5" strokeLinecap="round" strokeLinejoin="round"/>
<path d="M23.8083 25.1011H34.6954V2.36423C34.6954 2.01634 34.5563 1.68269 34.3089 1.43669C34.0614 1.19069 33.7257 1.05249 33.3757 1.05249H7.12939M14.1309 25.1011H9.62206C9.44876 25.1011 9.27716 25.0671 9.11706 25.0012C8.95695 24.9353 8.81147 24.8387 8.68893 24.7169C8.56639 24.5951 8.46918 24.4505 8.40287 24.2913C8.33655 24.1322 8.30241 23.9616 8.30241 23.7893V15.263" stroke="black" strokeWidth="1.2" strokeLinecap="round"/>
<path d="M1.48535 5.78938H10.283" stroke="black" strokeWidth="1.2" strokeLinecap="round" strokeLinejoin="round"/>
<path d="M6.32373 10.5262H15.1214" stroke="black" strokeWidth="1.2" strokeLinecap="round" strokeLinejoin="round"/>
<path d="M34.6963 7.61127H47.035C47.2901 7.61133 47.5397 7.68488 47.7536 7.823C47.9675 7.96113 48.1365 8.15793 48.2403 8.38957L52.1772 17.1957C52.2522 17.3629 52.2912 17.5439 52.2916 17.727V23.7894C52.2916 23.9617 52.2575 24.1322 52.1911 24.2914C52.1248 24.4505 52.0276 24.5951 51.9051 24.7169C51.7825 24.8387 51.6371 24.9354 51.477 25.0013C51.3168 25.0672 51.1452 25.1011 50.9719 25.1011H46.7931M34.6963 25.1011H36.8957" stroke="black" strokeWidth="1.2" strokeLinecap="round"/>
<path d="M44.4253 9.7368C43.873 9.7368 43.4253 10.1845 43.4253 10.7368V16.2368C43.4253 16.7891 43.873 17.2368 44.4253 17.2368H48.7615C49.4799 17.2368 49.964 16.5017 49.6801 15.8417L47.3145 10.3417C47.1566 9.97464 46.7954 9.7368 46.3959 9.7368H44.4253Z" fill="#24C57A"/>
</svg>
