<svg width="135" height="28" viewBox="0 0 135 28" fill="none" xmlns="http://www.w3.org/2000/svg">
<rect width="135" height="28" rx="14" fill="white"/>
<path d="M25.1835 21.2917H14.8169C14.5279 21.2799 14.244 21.2112 13.9816 21.0896C13.7192 20.968 13.4833 20.7959 13.2875 20.583C13.0917 20.3702 12.9397 20.1208 12.8404 19.8492C12.741 19.5775 12.6962 19.289 12.7085 19V16.5C12.7085 16.3342 12.7744 16.1753 12.8916 16.0581C13.0088 15.9408 13.1678 15.875 13.3335 15.875C13.4993 15.875 13.6583 15.9408 13.7755 16.0581C13.8927 16.1753 13.9585 16.3342 13.9585 16.5V19C13.937 19.2474 14.0116 19.4937 14.1667 19.6876C14.3219 19.8816 14.5457 20.0083 14.7919 20.0417H25.1835C25.4297 20.0083 25.6535 19.8816 25.8087 19.6876C25.9638 19.4937 26.0384 19.2474 26.0169 19V16.5C26.0169 16.3342 26.0827 16.1753 26.1999 16.0581C26.3171 15.9408 26.4761 15.875 26.6419 15.875C26.8076 15.875 26.9666 15.9408 27.0838 16.0581C27.201 16.1753 27.2669 16.3342 27.2669 16.5V19C27.2918 19.5795 27.0869 20.1454 26.6968 20.5745C26.3066 21.0037 25.7628 21.2614 25.1835 21.2917Z" fill="#24C57A"/>
<path d="M19.9999 17.1249C19.9178 17.1253 19.8364 17.1092 19.7605 17.0778C19.6847 17.0463 19.6159 17 19.5582 16.9415L16.2249 13.6082C16.1145 13.4897 16.0544 13.333 16.0572 13.1711C16.0601 13.0092 16.1257 12.8547 16.2402 12.7402C16.3547 12.6257 16.5092 12.5601 16.6711 12.5572C16.833 12.5544 16.9897 12.6145 17.1082 12.7249L19.9999 15.6165L22.8915 12.7249C23.01 12.6145 23.1667 12.5544 23.3286 12.5572C23.4906 12.5601 23.645 12.6257 23.7596 12.7402C23.8741 12.8547 23.9397 13.0092 23.9425 13.1711C23.9454 13.333 23.8853 13.4897 23.7749 13.6082L20.4415 16.9415C20.3838 17 20.315 17.0463 20.2392 17.0778C20.1634 17.1092 20.082 17.1253 19.9999 17.1249Z" fill="#24C57A"/>
<path d="M20 17.1252C19.8349 17.123 19.6772 17.0565 19.5604 16.9397C19.4437 16.823 19.3772 16.6653 19.375 16.5002V7.3335C19.375 7.16774 19.4408 7.00876 19.5581 6.89155C19.6753 6.77434 19.8342 6.7085 20 6.7085C20.1658 6.7085 20.3247 6.77434 20.4419 6.89155C20.5592 7.00876 20.625 7.16774 20.625 7.3335V16.5002C20.6228 16.6653 20.5563 16.823 20.4396 16.9397C20.3228 17.0565 20.1651 17.123 20 17.1252Z" fill="#24C57A"/>
<path d="M38.5341 19H34.7706V8.81818H38.5291C39.5665 8.81818 40.4598 9.02202 41.2088 9.42969C41.9612 9.83404 42.5412 10.4174 42.9489 11.1797C43.3565 11.9387 43.5604 12.8468 43.5604 13.9041C43.5604 14.9647 43.3565 15.8762 42.9489 16.6385C42.5445 17.4008 41.9661 17.9858 41.2138 18.3935C40.4614 18.7978 39.5682 19 38.5341 19ZM37.2315 16.902H38.4396C39.0097 16.902 39.492 16.8059 39.8864 16.6136C40.2841 16.4181 40.584 16.1016 40.7862 15.6641C40.9917 15.2232 41.0945 14.6366 41.0945 13.9041C41.0945 13.1716 40.9917 12.5883 40.7862 12.1541C40.5807 11.7166 40.2775 11.4018 39.8764 11.2095C39.4787 11.014 38.9882 10.9162 38.4048 10.9162H37.2315V16.902ZM54.6072 13.9091C54.6072 15.0294 54.3918 15.9789 53.9609 16.7578C53.5301 17.5367 52.9467 18.1283 52.2109 18.5327C51.4785 18.937 50.6565 19.1392 49.745 19.1392C48.8303 19.1392 48.0066 18.9354 47.2741 18.5277C46.5417 18.12 45.96 17.5284 45.5291 16.7528C45.1016 15.974 44.8878 15.026 44.8878 13.9091C44.8878 12.7888 45.1016 11.8393 45.5291 11.0604C45.96 10.2815 46.5417 9.68987 47.2741 9.28551C48.0066 8.88115 48.8303 8.67898 49.745 8.67898C50.6565 8.67898 51.4785 8.88115 52.2109 9.28551C52.9467 9.68987 53.5301 10.2815 53.9609 11.0604C54.3918 11.8393 54.6072 12.7888 54.6072 13.9091ZM52.0916 13.9091C52.0916 13.2462 51.9972 12.6861 51.8082 12.2287C51.6226 11.7713 51.3542 11.425 51.0028 11.1896C50.6548 10.9543 50.2356 10.8366 49.745 10.8366C49.2578 10.8366 48.8385 10.9543 48.4872 11.1896C48.1359 11.425 47.8658 11.7713 47.6768 12.2287C47.4912 12.6861 47.3984 13.2462 47.3984 13.9091C47.3984 14.572 47.4912 15.1321 47.6768 15.5895C47.8658 16.0469 48.1359 16.3932 48.4872 16.6286C48.8385 16.8639 49.2578 16.9815 49.745 16.9815C50.2356 16.9815 50.6548 16.8639 51.0028 16.6286C51.3542 16.3932 51.6226 16.0469 51.8082 15.5895C51.9972 15.1321 52.0916 14.572 52.0916 13.9091ZM57.9792 19L55.0162 8.81818H57.7356L59.2718 15.4901H59.3564L61.1113 8.81818H63.3287L65.0836 15.505H65.1681L66.7093 8.81818H69.4238L66.4657 19H64.0943L62.2598 12.8253H62.1802L60.3457 19H57.9792ZM79.106 8.81818V19H77.0179L72.9661 13.1236H72.9015V19H70.4405V8.81818H72.5584L76.5655 14.6847H76.65V8.81818H79.106ZM80.6534 19V8.81818H83.1143V17.0014H87.3501V19H80.6534ZM97.8377 13.9091C97.8377 15.0294 97.6223 15.9789 97.1914 16.7578C96.7605 17.5367 96.1772 18.1283 95.4414 18.5327C94.7089 18.937 93.887 19.1392 92.9755 19.1392C92.0607 19.1392 91.2371 18.9354 90.5046 18.5277C89.7721 18.12 89.1905 17.5284 88.7596 16.7528C88.332 15.974 88.1183 15.026 88.1183 13.9091C88.1183 12.7888 88.332 11.8393 88.7596 11.0604C89.1905 10.2815 89.7721 9.68987 90.5046 9.28551C91.2371 8.88115 92.0607 8.67898 92.9755 8.67898C93.887 8.67898 94.7089 8.88115 95.4414 9.28551C96.1772 9.68987 96.7605 10.2815 97.1914 11.0604C97.6223 11.8393 97.8377 12.7888 97.8377 13.9091ZM95.3221 13.9091C95.3221 13.2462 95.2276 12.6861 95.0387 12.2287C94.8531 11.7713 94.5846 11.425 94.2333 11.1896C93.8853 10.9543 93.466 10.8366 92.9755 10.8366C92.4883 10.8366 92.069 10.9543 91.7177 11.1896C91.3664 11.425 91.0962 11.7713 90.9073 12.2287C90.7217 12.6861 90.6289 13.2462 90.6289 13.9091C90.6289 14.572 90.7217 15.1321 90.9073 15.5895C91.0962 16.0469 91.3664 16.3932 91.7177 16.6286C92.069 16.8639 92.4883 16.9815 92.9755 16.9815C93.466 16.9815 93.8853 16.8639 94.2333 16.6286C94.5846 16.3932 94.8531 16.0469 95.0387 15.5895C95.2276 15.1321 95.3221 14.572 95.3221 13.9091ZM100.875 19H98.2305L101.666 8.81818H104.942L108.377 19H105.733L103.341 11.3835H103.262L100.875 19ZM100.522 14.9929H106.051V16.8622H100.522V14.9929ZM113.237 19H109.474V8.81818H113.232C114.27 8.81818 115.163 9.02202 115.912 9.42969C116.664 9.83404 117.244 10.4174 117.652 11.1797C118.06 11.9387 118.263 12.8468 118.263 13.9041C118.263 14.9647 118.06 15.8762 117.652 16.6385C117.248 17.4008 116.669 17.9858 115.917 18.3935C115.165 18.7978 114.271 19 113.237 19ZM111.935 16.902H113.143C113.713 16.902 114.195 16.8059 114.589 16.6136C114.987 16.4181 115.287 16.1016 115.489 15.6641C115.695 15.2232 115.798 14.6366 115.798 13.9041C115.798 13.1716 115.695 12.5883 115.489 12.1541C115.284 11.7166 114.981 11.4018 114.58 11.2095C114.182 11.014 113.691 10.9162 113.108 10.9162H111.935V16.902Z" fill="#24C57A"/>
</svg>
