<svg width="32" height="42" viewBox="1 0 32 42" fill="none" xmlns="http://www.w3.org/2000/svg">
<path d="M18.3848 20.3053H23.7071M19.4492 23.7788H28.3197" stroke="#24C57A" strokeWidth="1.2" strokeLinecap="round" strokeLinejoin="round"/>
<path d="M1 19.7733L1.37742 24.3295M15.7311 19.7733L15.4408 23.2781M1.37742 24.3295L2.71292 40.4516H14.0182L15.4408 23.2781M1.37742 24.3295C3.19293 24.68 5.4536 25.7314 8.19428 24.3295C10.2498 23.2781 13.7801 22.9276 15.4408 23.2781M27.0364 6.10457V8.55793C27.7216 8.90841 30.4623 11.3618 30.8049 13.1142V14.8666M27.0364 6.10457H28.4068V1.54834H26.0087M27.0364 6.10457H26.0087M22.2402 6.10457H20.8699V1.54834H22.5828M22.2402 6.10457V8.55793C21.2125 8.90841 18.4718 11.3618 18.1292 13.1142V14.8666M22.2402 6.10457H22.5828M18.1292 14.8666H30.8049M18.1292 14.8666V32.3905M30.8049 14.8666V32.3905M18.1292 32.3905V38.6992C18.1292 40.4516 19.157 40.4516 19.8421 40.4516C21.3597 40.4516 21.2125 39.4001 22.2402 39.4001C23.268 39.4001 22.5828 40.4516 24.6383 40.4516C26.3513 40.4516 25.3235 39.4001 26.6938 39.4001C28.5796 39.4001 27.7216 40.4516 29.0919 40.4516C30.4623 40.4516 30.8049 39.4001 30.8049 39.0497V32.3905M18.1292 32.3905H30.8049M22.5828 1.54834V6.10457M22.5828 1.54834H26.0087M22.5828 6.10457H26.0087M26.0087 1.54834V6.10457" stroke="black" strokeWidth="1.2" strokeLinecap="round" strokeLinejoin="round"/>
</svg>
