<svg width="42" height="41" viewBox="-1 0 42 41" fill="none" xmlns="http://www.w3.org/2000/svg">
<path d="M12.4711 9.80934L1.34436 38.2703C1.02724 39.0815 1.82662 39.8822 2.6383 39.5664L30.5986 28.6879M12.4711 9.80934C14.7852 8.29906 20.9563 12.4523 25.1989 16.6056C29.4415 20.7589 33.6841 27.1776 30.5986 28.6879M12.4711 9.80934C11.314 12.769 14.3995 17.7383 17.8708 21.1365C21.342 24.5346 25.9703 28.3103 30.5986 28.6879M26.7417 22.2692L37.0741 19.6468C37.1282 19.6331 37.1855 19.6235 37.2412 19.6198C41.7835 19.3189 41.7596 24.9122 37.9267 24.9122M18.6421 14.7178L21.7277 3.7682C22.1134 1.50277 17.8708 -0.385096 16.328 3.01304M23.2704 17.7383L33.6841 7.5439C35.6126 5.27847 33.2984 1.50279 29.4415 3.7682M13.6282 4.52333L15.1709 7.16633M33.2984 15.0953L30.5986 16.6056" stroke="black" strokeWidth="1.2" strokeLinecap="round" strokeLinejoin="round"/>
<path d="M5.52871 27.5879C4.37172 31.7412 5.14261 37.4048 8.99973 37.0272M8.61424 19.6589C6.68578 25.7001 10.157 35.1393 18.6422 33.2515M12.0854 11.7299C12.8568 19.6589 16.328 31.2126 25.5846 30.6085" stroke="black" strokeWidth="1.2" strokeLinecap="round" strokeLinejoin="round"/>
<path d="M35.9383 12.6263L36.065 12.2543C36.2414 11.7362 36.8015 11.4562 37.3218 11.626L37.7345 11.7606C38.2643 11.9335 38.5505 12.5061 38.3709 13.0336L38.2442 13.4057C38.0678 13.9237 37.5077 14.2038 36.9874 14.034L36.5747 13.8993C36.0449 13.7265 35.7587 13.1539 35.9383 12.6263Z" stroke="#24C57A" strokeWidth="1.2" stroke-miterlimit="16" strokeLinecap="round"/>
<ellipse cx="24.0383" cy="9.4318" rx="1.92846" ry="1.88786" fill="#24C57A"/>
<path d="M26.7376 2.25789L25.5806 5.27846M34.0658 25.2897L36.7656 27.1776" stroke="#ECBF2B" strokeWidth="1.2" strokeLinecap="round" strokeLinejoin="round"/>
</svg>
