<svg width="42" height="42" viewBox="0 0 42 42" fill="none" xmlns="http://www.w3.org/2000/svg">
<path d="M18.1463 12.6842C17.7431 14.6579 12.5012 16.6316 11.6947 11.1053C10.8883 5.57897 19.7592 3.60529 22.1786 9.52634C24.5979 15.4474 21.7753 22.1579 14.114 24.9211" stroke="#24C57A" stroke-width="1.2" stroke-linecap="round" stroke-linejoin="round"/>
<path d="M15.7246 19.3947H6.45042M6.45042 19.3947V41.1052H33.4665V19.3947M6.45042 19.3947L1.2085 24.5262M33.4665 19.3947H25.402M33.4665 19.3947L38.3052 24.5262M30.6439 0.842041C30.6439 2.42099 26.5535 6.36835 25.3438 6.36835C26.5535 6.36835 30.6439 10.8158 30.6439 12C30.6439 10.8158 34.8428 6.36835 36 6.36835C34.8135 6.36835 30.6439 2.42099 30.6439 0.842041Z" stroke="black" stroke-width="1.2" stroke-linecap="round" stroke-linejoin="round"/>
<path d="M35.4854 13.9853C36.2595 13.9853 38.8402 11.6461 38.8402 10.7104C38.8402 11.6461 41.3176 13.9853 41.937 13.9853C41.1628 13.9853 38.8402 16.3245 38.8402 17.0262C38.8402 16.3245 36.2595 13.9853 35.4854 13.9853Z" fill="#ECBF2B"/>
<path d="M0 6.09053C0.774194 6.09053 3.35484 3.75135 3.35484 2.81567C3.35484 3.75135 5.83226 6.09053 6.45161 6.09053C5.67742 6.09053 3.35484 8.42971 3.35484 9.13146C3.35484 8.42971 0.774194 6.09053 0 6.09053Z" fill="black"/>
</svg>
