<svg version="1.1" id="Layer_1" xmlns="http://www.w3.org/2000/svg" xmlns:xlink="http://www.w3.org/1999/xlink" x="0px" y="0px"
	 viewBox="0 0 25.2 25.2" style="enable-background:new 0 0 25.2 25.2;" xml:space="preserve">
<style type="text/css">
	.st0{fill:#4285F4;}
	.st1{fill:#34A853;}
	.st2{fill:#FBBC05;}
	.st3{fill:#EA4335;}
	.st4{fill:none;}
</style>
<g>
	<path class="st0" d="M24.7,12.9c0-0.9-0.1-1.8-0.2-2.6H12.6v4.9h6.8c-0.3,1.6-1.2,2.9-2.5,3.8v3.2h4.1C23.3,20,24.7,16.7,24.7,12.9
		z"/>
	<path class="st1" d="M12.6,25.2c3.4,0,6.3-1.1,8.3-3L16.9,19c-1.1,0.8-2.6,1.2-4.2,1.2c-3.3,0-6.1-2.2-7.1-5.2H1.4v3.3
		C3.4,22.4,7.7,25.2,12.6,25.2z"/>
	<path class="st2" d="M5.5,15c-0.3-0.8-0.4-1.6-0.4-2.4c0-0.8,0.1-1.6,0.4-2.4V7H1.4C0.5,8.6,0,10.6,0,12.6s0.5,4,1.4,5.6l3.3-2.5
		C4.6,15.7,5.5,15,5.5,15z"/>
	<path class="st3" d="M12.6,5c1.9,0,3.5,0.6,4.8,1.9L21,3.3c-2.2-2-5-3.3-8.4-3.3C7.7,0,3.4,2.8,1.4,7l4.2,3.3C6.5,7.2,9.3,5,12.6,5
		z"/>
	<path class="st4" d="M0,0h25.2v25.2H0V0z"/>
</g>
</svg>