<svg version="1.1" id="Layer_1" xmlns="http://www.w3.org/2000/svg" xmlns:xlink="http://www.w3.org/1999/xlink" x="0px" y="0px"
	 viewBox="0 0 21.4 19.7" style="enable-background:new 0 0 21.4 19.7;" xml:space="preserve">
<style type="text/css">
	.st0{fill:#3C1E1E;}
</style>
<path class="st0" d="M10.7,0c1.9,0,3.7,0.4,5.4,1.1c1.6,0.8,2.9,1.8,3.9,3.1c1,1.3,1.4,2.7,1.4,4.2c0,1.5-0.5,2.9-1.4,4.2
	c-1,1.3-2.2,2.3-3.9,3.1c-1.6,0.8-3.4,1.1-5.4,1.1c-0.6,0-1.2,0-1.9-0.1c-2.8,2-4.3,3-4.5,3c-0.1,0-0.2,0-0.3,0c0,0-0.1-0.1-0.1-0.1
	s0-0.1,0-0.1v0c0-0.3,0.4-1.6,1.1-3.9c-1.5-0.8-2.8-1.8-3.7-3C0.5,11.3,0,9.9,0,8.4c0-1.5,0.5-2.9,1.4-4.2c1-1.3,2.3-2.3,3.9-3.1
	C7,0.4,8.8,0,10.7,0z"/>
</svg>