<svg width="50" height="35" viewBox="0 0 50 35" fill="none" xmlns="http://www.w3.org/2000/svg">
<path d="M21.0774 9.47822V17.3776H28.5033V9.47822H21.0774Z" fill="#24C57A"/>
<path d="M17.2269 1.57886H7.87582C4.30039 1.57886 1 5.93712 1 8.38865C1 14.1089 1 25.9307 1 27.4561C1 30.4524 5.12549 34.2659 7.87582 34.2659H17.2269M17.2269 1.57886V5.93712M17.2269 1.57886H24.9278H32.6288M17.2269 34.2659H32.6288M17.2269 34.2659V29.9076M32.6288 34.2659H41.4298C44.7302 34.2659 48.5807 29.9076 48.5807 27.4561V8.38865C48.5807 5.93712 45.2803 1.57886 41.4298 1.57886H32.6288M32.6288 34.2659V29.9076M32.6288 1.57886V5.93712M17.2269 5.93712H11.7263C8.70091 5.93712 5.95059 8.93343 5.95059 11.1126V23.0978M17.2269 5.93712V23.3702M32.6288 5.93712H38.6795C40.3297 5.93712 43.9051 8.38865 43.9051 11.1126V24.7321C43.9051 26.9113 41.4298 29.9076 38.6795 29.9076H32.6288M32.6288 5.93712V24.7321M32.6288 29.9076V24.7321M17.2269 29.9076H11.7263C10.5826 29.9076 9.06734 29.2452 7.87582 28.2265M17.2269 29.9076V26.6389M17.2269 23.3702H28.5033M17.2269 23.3702V26.6389M17.2269 26.6389H24.9278M5.95059 23.0978V24.7321C5.95059 26.0402 6.77506 27.2854 7.87582 28.2265M5.95059 23.0978L13.9265 16.5604M7.87582 28.2265L13.9265 23.0978M32.6288 24.7321L38.6795 19.5567M32.9038 17.65L43.08 9.47822M21.0774 9.47822V17.3776H28.5033V9.47822H21.0774Z" stroke="black" strokeWidth="1.2" strokeLinecap="round" strokeLinejoin="round"/>
</svg>
