<svg width="50" height="36" viewBox="0 0 50 36" fill="none" xmlns="http://www.w3.org/2000/svg">
<path d="M43.9978 18.1316C43.9978 17.0275 43.5497 15.9686 42.7522 15.1879C41.9548 14.4072 40.8731 13.9686 39.7453 13.9686C38.6175 13.9686 37.5358 14.4072 36.7383 15.1879C35.9408 15.9686 35.4928 17.0275 35.4928 18.1316M21.4119 5.66583L24.8139 5.14629M47.3998 1.47974L33.603 3.60526M21.4119 9.82879L24.8139 9.62064M47.3998 8.14048L33.603 9.10526M21.7334 18.1316H45.8519C48.5769 18.1316 49.577 18.7477 48.8966 21.432C47.6957 26.1661 44.2988 27.3417 41.1588 30.4307C40.3968 31.18 41.5841 32.2907 41.5841 33.1166C41.5841 34.6719 40.0753 34.7834 38.871 34.7834H28.716C27.5117 34.7834 26.0012 34.6719 26.0029 33.1183C26.0029 32.309 27.1545 31.1467 26.4282 30.4307C23.2881 27.3417 19.8913 26.1661 18.6904 21.432C18.01 18.7494 19.0101 18.1316 21.7351 18.1316M19.2401 7.03035C17.7281 5.6427 13.9481 5.6427 12.8141 8.14048C10.9241 7.03035 6.38815 7.77044 6.38815 11.8409C4.49815 11.8409 1.85216 14.8012 2.98616 17.3915M2.98616 17.3915H1.09633C0.340329 21.432 4.12032 29.0478 9.41231 31.083L9.41196 34.4134H23.5858V31.083L24.1539 30.713M2.98616 17.3915H17.7279" stroke="black" strokeWidth="1.2" strokeLinecap="round" strokeLinejoin="round"/>
<path d="M24.812 3.14492V16.6514M27.8364 2.31233V10.6383M31.103 1.47974V10.6383" stroke="#24C57A" strokeWidth="1.2" strokeLinecap="round" strokeLinejoin="round"/>
</svg>
