<svg width="18" height="18" viewBox="0 0 18 18" fill="none" xmlns="http://www.w3.org/2000/svg">
<path d="M13.2335 17H17.3113C16.7575 16.0636 15.0157 14.1908 12.4783 14.1908C9.94102 14.1908 6.8902 16.0636 5.68195 17H12.1763M6.8902 14.9301C6.13504 14.7822 3.56752 14.7822 1 17H3.71855M7.64535 14.1908C7.49432 13.4516 8.55154 12.2688 8.8536 11.9731C8.70257 11.7759 8.27968 11.3521 7.79638 11.2338C7.19226 11.086 5.22886 11.086 4.32268 10.7903C3.40523 10.4909 2.20825 9.60744 2.20825 7.83323V6.50258C2.20825 5.61546 3.56752 5.76331 3.56752 6.35472C3.56752 6.89684 3.59773 8.06979 3.71855 8.42463C4.17165 8.27678 4.77577 7.38968 4.77577 6.50257C4.77577 5.61546 6.28608 5.61546 6.28608 6.65042C6.28608 7.68538 5.68195 9.01604 4.77577 9.45959M6.43711 9.60744C6.73917 9.60744 7.3735 9.63701 7.49432 9.75529C7.04123 9.01604 7.49432 8.27678 7.64535 7.98108C7.79638 7.68537 9.15566 6.20686 9.15566 5.61546C9.15566 5.02405 9.15566 3.9891 8.09844 3.10199C7.34329 2.51058 8.24947 1.32777 9.15566 2.21488C10.0618 3.10199 10.5149 3.98909 10.5149 5.02405M11.5722 4.5805C11.8742 4.13694 12.0252 3.24984 11.4211 2.51058C10.968 1.91918 12.1763 0.884218 12.7804 1.91918C13.3845 2.95413 14.1397 6.05901 10.3639 6.50257C10.0618 7.24182 9.00463 7.98108 9.00463 8.86819C9.00463 9.57787 9.00463 10.051 9.00463 10.1988C9.30669 10.3467 9.94102 10.7607 10.0618 11.2338L10.666 11.086C11.1191 10.7903 10.968 9.31174 10.666 8.72034C10.3639 8.12893 11.1191 7.24182 11.8742 7.83323C12.4783 8.30635 12.428 9.80458 12.3273 10.4946C13.2335 10.3467 14.1397 9.31174 14.1397 7.98108M14.8948 7.38968C15.4989 7.09397 16.5562 9.31174 13.6866 11.3817C12.3273 12.4166 10.2129 12.4166 9.75978 13.008C9.39731 13.4811 9.30669 13.698 9.30669 13.7473" stroke="#222222" stroke-width="0.4" stroke-linecap="round" stroke-linejoin="round"/>
<path d="M5.62995 3.25283C5.62995 3.62832 5.31781 3.93994 4.92376 3.93994C4.52972 3.93994 4.21758 3.62832 4.21758 3.25283C4.21758 2.87734 4.52972 2.56572 4.92376 2.56572C5.31781 2.56572 5.62995 2.87734 5.62995 3.25283Z" stroke="#24C57A" stroke-width="0.4"/>
<path d="M7.14087 0.739256C7.14087 1.03309 6.89636 1.27851 6.58572 1.27851C6.27508 1.27851 6.03057 1.03309 6.03057 0.739256C6.03057 0.445424 6.27508 0.2 6.58572 0.2C6.89636 0.2 7.14087 0.445424 7.14087 0.739256Z" stroke="#ECBF2B" stroke-width="0.4"/>
<path d="M6.23444 13.0109C6.23444 13.3864 5.9223 13.698 5.52826 13.698C5.13421 13.698 4.82207 13.3864 4.82207 13.0109C4.82207 12.6354 5.13421 12.3238 5.52826 12.3238C5.9223 12.3238 6.23444 12.6354 6.23444 13.0109Z" stroke="#222222" stroke-width="0.4"/>
<path d="M16.2037 4.43545C16.2037 4.81094 15.8915 5.12256 15.4975 5.12256C15.1034 5.12256 14.7913 4.81094 14.7913 4.43545C14.7913 4.05996 15.1034 3.74834 15.4975 3.74834C15.8915 3.74834 16.2037 4.05996 16.2037 4.43545Z" stroke="#222222" stroke-width="0.4"/>
</svg>
