<svg width="15" height="20" viewBox="0 0 15 20" fill="none" xmlns="http://www.w3.org/2000/svg">
<path d="M9.04346 9.67847H11.506M9.53597 11.2856H13.6402" stroke="#24C57A" stroke-width="0.4" stroke-linecap="round" stroke-linejoin="round"/>
<path d="M1 9.43243L1.17463 11.5405M7.8159 9.43243L7.68157 11.0541M1.17463 11.5405L1.79255 19H7.02335L7.68157 11.0541M1.17463 11.5405C2.01464 11.7027 3.06062 12.1892 4.32869 11.5405C5.27975 11.0541 6.9132 10.8919 7.68157 11.0541M13.0467 3.10811V4.24324C13.3637 4.40541 14.6318 5.54054 14.7903 6.35135V7.16216M13.0467 3.10811H13.6807V1H12.5712M13.0467 3.10811H12.5712M10.8276 3.10811H10.1935V1H10.9861M10.8276 3.10811V4.24324C10.352 4.40541 9.08397 5.54054 8.92546 6.35135V7.16216M10.8276 3.10811H10.9861M8.92546 7.16216H14.7903M8.92546 7.16216V15.2703M14.7903 7.16216V15.2703M8.92546 15.2703V18.1892C8.92546 19 9.40099 19 9.71801 19C10.4202 19 10.352 18.5135 10.8276 18.5135C11.3031 18.5135 10.9861 19 11.9371 19C12.7297 19 12.2542 18.5135 12.8882 18.5135C13.7607 18.5135 13.3637 19 13.9978 19C14.6318 19 14.7903 18.5135 14.7903 18.3514V15.2703M8.92546 15.2703H14.7903M10.9861 1V3.10811M10.9861 1H12.5712M10.9861 3.10811H12.5712M12.5712 1V3.10811" stroke="#222222" stroke-width="0.4" stroke-linecap="round" stroke-linejoin="round"/>
</svg>
