<svg width="17" height="20" viewBox="0 0 17 20" fill="none" xmlns="http://www.w3.org/2000/svg">
<path d="M10.3751 7.87498C10.9605 8.10668 12.3261 8.49394 12.9492 8.49394C9.86955 8.49394 6.97649 11.8246 6.97649 15.75C6.97649 11.8246 4.07976 8.49394 1.00009 8.49394C4.07976 8.49394 6.97649 5.52015 6.97649 1C6.97649 3.73294 7.37507 4.49999 8.50007 5.99999" stroke="#222222" stroke-width="0.5" strokeLinecap="round" stroke-linejoin="round"/>
<path d="M9.125 6.625C9.125 6.625 9.52297 7.12978 9.75 7.25" stroke="#ECBF2B" stroke-width="0.5" stroke-linecap="round" stroke-linejoin="round"/>
<path d="M15.9995 15.8145C14.4269 15.8145 12.9496 14.2016 12.9496 11.75C12.9496 14.2016 11.4704 15.8145 9.89783 15.8145C11.4704 15.8145 12.9496 17.621 12.9496 19.75C12.9496 17.621 14.4269 15.8145 15.9995 15.8145Z" fill="#24C57A" stroke="#24C57A" stroke-width="0.5" stroke-linejoin="round"/>
</svg>
