<svg width="23" height="16" viewBox="0 0 23 16" fill="none" xmlns="http://www.w3.org/2000/svg">
<path d="M9.82355 4.38333V7.76667H13.0871V4.38333H9.82355Z" fill="#24C57A"/>
<path d="M8.13136 1H4.02176C2.45045 1 1 2.86667 1 3.91667C1 6.36667 1 11.43 1 12.0833C1 13.3667 2.81306 15 4.02176 15H8.13136M8.13136 1V2.86667M8.13136 1H11.5157H14.9001M8.13136 15H14.9001M8.13136 15V13.1333M14.9001 15H18.768C20.2184 15 21.9106 13.1333 21.9106 12.0833V3.91667C21.9106 2.86667 20.4602 1 18.768 1H14.9001M14.9001 15V13.1333M14.9001 1V2.86667M8.13136 2.86667H5.71395C4.38438 2.86667 3.17567 4.15 3.17567 5.08333V10.2167M8.13136 2.86667V10.3333M14.9001 2.86667H17.5593C18.2845 2.86667 19.8558 3.91667 19.8558 5.08333V10.9167C19.8558 11.85 18.768 13.1333 17.5593 13.1333H14.9001M14.9001 2.86667V10.9167M14.9001 13.1333V10.9167M8.13136 13.1333H5.71395C5.21133 13.1333 4.54541 12.8496 4.02176 12.4133M8.13136 13.1333V11.7333M8.13136 10.3333H13.0871M8.13136 10.3333V11.7333M8.13136 11.7333H11.5157M3.17567 10.2167V10.9167C3.17567 11.4769 3.53801 12.0102 4.02176 12.4133M3.17567 10.2167L6.68092 7.41667M4.02176 12.4133L6.68092 10.2167M14.9001 10.9167L17.5593 8.7M15.021 7.88333L19.4932 4.38333M9.82355 4.38333V7.76667H13.0871V4.38333H9.82355Z" stroke="#222222" stroke-width="0.4" stroke-linecap="round" stroke-linejoin="round"/>
</svg>
