<svg width="49" height="49" viewBox="0 0 49 49" fill="none" xmlns="http://www.w3.org/2000/svg">
<path d="M17.7361 1.07397L17.8343 1.56422L17.7361 1.07397ZM24.5361 3.63751L24.5361 3.13751L24.5359 3.13751L24.5361 3.63751ZM30.9337 1.07395L30.8214 1.5612L30.9337 1.07395ZM42.7689 35.7255L42.3006 35.5504L42.7689 35.7255ZM41.4894 41.4977L41.8023 41.8877L41.4894 41.4977ZM13.903 23.2041C13.7396 22.9815 13.4266 22.9335 13.2041 23.097C12.9815 23.2604 12.9335 23.5734 13.097 23.7959L13.903 23.2041ZM17.7451 29.281L17.3421 29.577C17.4701 29.7512 17.6955 29.8235 17.9009 29.7562C18.1063 29.6889 18.2451 29.4972 18.2451 29.281H17.7451ZM18.2451 21.6014C18.2451 21.3253 18.0213 21.1014 17.7451 21.1014C17.469 21.1014 17.2451 21.3253 17.2451 21.6014H18.2451ZM27.3139 22.1014C27.59 22.1014 27.8139 21.8776 27.8139 21.6014C27.8139 21.3253 27.59 21.1014 27.3139 21.1014V22.1014ZM21.5726 21.6014V21.1014C21.2965 21.1014 21.0726 21.3253 21.0726 21.6014H21.5726ZM21.5726 29.281H21.0726C21.0726 29.5572 21.2965 29.781 21.5726 29.781V29.281ZM27.3139 29.781C27.59 29.781 27.8139 29.5572 27.8139 29.281C27.8139 29.0049 27.59 28.781 27.3139 28.781V29.781ZM26.1983 25.9412C26.4744 25.9412 26.6983 25.7174 26.6983 25.4412C26.6983 25.1651 26.4744 24.9412 26.1983 24.9412V25.9412ZM30.8467 21.5289C30.8067 21.2557 30.5527 21.0667 30.2795 21.1067C30.0062 21.1468 29.8172 21.4007 29.8573 21.6739L30.8467 21.5289ZM34.0108 21.6014L34.4914 21.4636C34.4291 21.2461 34.2283 21.0976 34.0021 21.1015C33.7758 21.1055 33.5804 21.2609 33.5256 21.4805L34.0108 21.6014ZM38.3316 21.7212C38.3767 21.4487 38.1925 21.1913 37.9201 21.1461C37.6476 21.101 37.3902 21.2852 37.345 21.5576L38.3316 21.7212ZM17.8343 1.56422C18.2391 1.48308 18.6885 1.55733 19.2045 1.75927C19.7228 1.9621 20.2624 2.27471 20.841 2.62342C21.4061 2.96393 22.0119 3.34131 22.6151 3.62844C23.2195 3.91609 23.8691 4.13775 24.5363 4.13751L24.5359 3.13751C24.0836 3.13767 23.5911 2.98547 23.0449 2.72551C22.4977 2.46502 21.9448 2.12103 21.3572 1.76693C20.7832 1.42103 20.1765 1.06579 19.5689 0.828039C18.9591 0.589411 18.3032 0.450357 17.6378 0.583715L17.8343 1.56422ZM24.5361 4.13751C25.1492 4.13751 25.7218 3.88698 26.2368 3.58509C26.7466 3.28634 27.281 2.88532 27.7744 2.54559C28.817 1.82769 29.7693 1.31888 30.8214 1.5612L31.0459 0.586709C29.528 0.237132 28.2411 1.01011 27.2073 1.72195C26.6625 2.0971 26.1994 2.44795 25.7312 2.72235C25.2684 2.99361 24.8826 3.13751 24.5361 3.13751V4.13751ZM30.8214 1.5612C31.2018 1.64879 31.5352 1.88927 31.8555 2.27272C32.1793 2.66043 32.4611 3.1595 32.7465 3.71197C33.0224 4.24589 33.3092 4.84634 33.6193 5.35296C33.9289 5.85867 34.3072 6.35132 34.8131 6.64131L35.3104 5.77372C35.0281 5.61189 34.7576 5.29713 34.4722 4.83084C34.1873 4.36546 33.9327 3.82931 33.635 3.253C33.3468 2.69524 33.0229 2.11046 32.623 1.63167C32.2195 1.14862 31.7112 0.739938 31.0459 0.586709L30.8214 1.5612ZM34.8131 6.64131C35.299 6.91979 35.9021 7.04142 36.498 7.10585C37.0976 7.17068 37.7591 7.18308 38.3693 7.20606C38.995 7.22962 39.5739 7.26425 40.0689 7.36471C40.5678 7.46597 40.9175 7.62229 41.1353 7.84078L41.8435 7.13475C41.4231 6.71311 40.8472 6.50229 40.2677 6.38468C39.6842 6.26626 39.0316 6.23028 38.407 6.20677C37.7669 6.18267 37.1594 6.17154 36.6055 6.11164C36.0478 6.05135 35.6129 5.94706 35.3104 5.77372L34.8131 6.64131ZM41.1353 7.84078C41.3433 8.04947 41.4797 8.38406 41.5533 8.87853C41.6266 9.3711 41.6277 9.9433 41.6279 10.5749C41.6281 11.189 41.6276 11.8569 41.7134 12.4742C41.7993 13.0915 41.978 13.7151 42.378 14.2165L43.1598 13.593C42.9199 13.2923 42.7785 12.8727 42.7039 12.3365C42.6293 11.8002 42.6281 11.2041 42.6279 10.5746C42.6277 9.96252 42.6287 9.31129 42.5424 8.73131C42.4563 8.15325 42.2736 7.56618 41.8435 7.13475L41.1353 7.84078ZM42.378 14.2165C42.7421 14.673 43.253 15.087 43.7818 15.4693C44.2974 15.8419 44.918 16.2442 45.4313 16.6036C45.9707 16.9814 46.4479 17.3487 46.8021 17.7252C47.1574 18.1029 47.3494 18.4486 47.3907 18.7793L48.383 18.6556C48.3048 18.0282 47.9573 17.4937 47.5305 17.04C47.1026 16.5852 46.5552 16.1699 46.0049 15.7845C45.4285 15.3809 44.8943 15.0395 44.3676 14.6588C43.8542 14.2877 43.4354 13.9386 43.1598 13.593L42.378 14.2165ZM47.3907 18.7793C47.4355 19.1393 47.3567 19.5064 47.1786 19.9195C46.997 20.3404 46.7317 20.7681 46.4303 21.2606C45.8474 22.2133 45.1477 23.3711 45.1477 24.8136H46.1477C46.1477 23.6893 46.687 22.7572 47.2833 21.7825C47.5716 21.3114 47.8809 20.8161 48.0968 20.3154C48.3161 19.8069 48.4575 19.2537 48.383 18.6556L47.3907 18.7793ZM45.1477 24.8136C45.1477 26.2835 46.005 27.3873 46.6237 28.3007C47.2729 29.2591 47.6982 30.0375 47.4059 31.0634L48.3677 31.3374C48.7965 29.8319 48.1022 28.7003 47.4516 27.7398C46.7705 26.7344 46.1477 25.9105 46.1477 24.8136H45.1477ZM47.4059 31.0634C47.1165 32.0794 46.3063 32.4883 45.2077 32.9958C44.1668 33.4766 42.8626 34.0472 42.3006 35.5504L43.2373 35.9006C43.6349 34.837 44.5291 34.4108 45.627 33.9036C46.6672 33.4231 47.936 32.8529 48.3677 31.3374L47.4059 31.0634ZM42.3006 35.5504C42.1166 36.0424 42.0318 36.6066 41.9806 37.1603C41.9306 37.7013 41.9075 38.3158 41.8699 38.8334C41.8305 39.3774 41.7732 39.8633 41.6582 40.2666C41.5432 40.6696 41.3842 40.9411 41.1764 41.1078L41.8023 41.8877C42.2344 41.541 42.475 41.0485 42.6198 40.5409C42.7645 40.0336 42.8269 39.4621 42.8673 38.9057C42.9096 38.3229 42.9263 37.7941 42.9764 37.2524C43.0253 36.7235 43.1007 36.2658 43.2373 35.9006L42.3006 35.5504ZM41.1764 41.1078C40.5196 41.6348 39.7194 41.7197 38.6712 41.7601C37.6606 41.7991 36.4369 41.7962 35.2143 42.3217L35.6093 43.2405C36.6258 42.8035 37.6412 42.8006 38.7098 42.7594C39.7408 42.7196 40.8598 42.644 41.8023 41.8877L41.1764 41.1078ZM35.2143 42.3217C34.5384 42.6123 34.0515 43.1154 33.6657 43.6608C33.2856 44.198 32.9736 44.8226 32.6825 45.3672C32.0628 46.5265 31.5321 47.3092 30.5583 47.4178L30.6691 48.4116C32.2297 48.2377 32.9784 46.9349 33.5644 45.8386C33.8761 45.2555 34.1485 44.7098 34.482 44.2383C34.8098 43.7751 35.1656 43.4312 35.6093 43.2405L35.2143 42.3217ZM30.5583 47.4178C29.5057 47.5351 28.6889 47.0157 27.8085 46.3405C27.3876 46.0177 26.9309 45.6427 26.4688 45.3615C25.9972 45.0745 25.4639 44.8479 24.856 44.8479V45.8479C25.2077 45.8479 25.5572 45.9774 25.949 46.2158C26.3504 46.46 26.7381 46.7797 27.1999 47.134C28.0849 47.8127 29.1873 48.5767 30.6691 48.4116L30.5583 47.4178ZM24.856 44.8479C24.2497 44.8479 23.6349 45.0973 23.0658 45.3968C22.4942 45.6976 21.8849 46.097 21.315 46.4456C20.7279 46.8048 20.1656 47.1217 19.6257 47.3136C19.0887 47.5045 18.617 47.5558 18.1936 47.4345L17.9181 48.3958C18.6143 48.5953 19.3125 48.4862 19.9606 48.2559C20.6057 48.0266 21.2436 47.6616 21.8368 47.2987C22.4472 46.9253 22.998 46.5625 23.5316 46.2817C24.0676 45.9996 24.5027 45.8479 24.856 45.8479V44.8479ZM18.1936 47.4345C17.32 47.1841 16.8426 46.3671 16.3075 45.2523C16.0557 44.7278 15.7891 44.139 15.4632 43.63C15.1333 43.1146 14.7135 42.6315 14.1217 42.3346L13.6734 43.2285C14.0412 43.413 14.3411 43.7319 14.621 44.1691C14.9048 44.6126 15.138 45.1267 15.406 45.6851C15.9105 46.736 16.5527 48.0045 17.9181 48.3958L18.1936 47.4345ZM14.1217 42.3346C13.5558 42.0508 12.9196 41.9437 12.2968 41.9017C11.6797 41.8601 11.0162 41.8805 10.4189 41.8805C9.15507 41.8805 8.1688 41.7816 7.5343 41.1452L6.82612 41.8512C7.79098 42.819 9.20375 42.8805 10.4189 42.8805C11.0611 42.8805 11.6572 42.8608 12.2295 42.8994C12.7962 42.9377 13.2797 43.0311 13.6734 43.2285L14.1217 42.3346ZM7.5343 41.1452C6.88122 40.4901 6.71993 39.5456 6.68029 38.4324C6.67056 38.159 6.6681 37.8852 6.66496 37.6073C6.66184 37.3321 6.65804 37.0529 6.64505 36.7819C6.6194 36.2469 6.55682 35.6975 6.36515 35.2169L5.43628 35.5873C5.56449 35.9088 5.62185 36.322 5.64619 36.8297C5.65819 37.0801 5.66189 37.3423 5.66502 37.6186C5.66812 37.8921 5.67066 38.1798 5.68092 38.4679C5.72125 39.6007 5.87984 40.9021 6.82612 41.8512L7.5343 41.1452ZM6.36515 35.2169C6.15348 34.6861 5.72358 34.275 5.26891 33.9379C4.81166 33.5989 4.26159 33.2875 3.75457 32.9904C3.23287 32.6847 2.74684 32.3889 2.35286 32.06C1.95986 31.732 1.69641 31.4015 1.57734 31.0432L0.628372 31.3586C0.829176 31.9628 1.24543 32.4382 1.71205 32.8277C2.17768 33.2164 2.73117 33.5498 3.24901 33.8532C3.78151 34.1652 4.27097 34.4429 4.67334 34.7412C5.07829 35.0415 5.32808 35.316 5.43628 35.5873L6.36515 35.2169ZM1.57734 31.0432C1.4602 30.6907 1.47997 30.3017 1.61278 29.8468C1.7474 29.3856 1.98565 28.8972 2.26597 28.3587C2.53855 27.835 2.85322 27.26 3.09383 26.6805C3.33607 26.0971 3.52187 25.4682 3.52187 24.8141H2.52187C2.52187 25.2829 2.38781 25.7732 2.17028 26.2971C1.95112 26.8249 1.66608 27.3453 1.37894 27.897C1.09954 28.4337 0.818064 29.0006 0.652845 29.5665C0.48581 30.1387 0.42564 30.7485 0.628372 31.3586L1.57734 31.0432ZM3.52187 24.8141C3.52187 24.1579 3.33499 23.5455 3.09087 22.9816C2.84988 22.4249 2.53286 21.8732 2.26281 21.3705C1.69611 20.3156 1.32532 19.4437 1.58357 18.5372L0.621836 18.2632C0.24024 19.6027 0.829039 20.8147 1.38188 21.8438C1.6716 22.3831 1.95434 22.8734 2.17317 23.3789C2.38887 23.8772 2.52187 24.3473 2.52187 24.8141H3.52187ZM1.58357 18.5372C1.84287 17.627 2.62339 17.0732 3.63983 16.4606C4.12393 16.1689 4.66579 15.8593 5.1376 15.5028C5.61536 15.1417 6.06076 14.7049 6.34819 14.1283L5.45324 13.6821C5.26082 14.0681 4.94652 14.3937 4.53465 14.705C4.11684 15.0208 3.63915 15.2935 3.12368 15.6041C2.14101 16.1963 1.00237 16.9275 0.621836 18.2632L1.58357 18.5372ZM6.34819 14.1283C6.63082 13.5614 6.73759 12.9241 6.77947 12.3046C6.82097 11.6906 6.8006 11.0352 6.80059 10.4561C6.80059 9.85685 6.8217 9.32605 6.9273 8.87582C7.03078 8.43467 7.20698 8.10785 7.49314 7.87821L6.86727 7.09828C6.35376 7.51036 6.09014 8.06589 5.95373 8.64745C5.81945 9.21993 5.80059 9.8522 5.80059 10.4561C5.8006 11.0802 5.82022 11.6681 5.78174 12.2372C5.74364 12.8008 5.65048 13.2865 5.45324 13.6821L6.34819 14.1283ZM7.49314 7.87821C7.7973 7.63414 8.24048 7.47364 8.81012 7.37475C9.37585 7.27654 10.0131 7.24725 10.6737 7.22757C11.3194 7.20833 11.9984 7.19834 12.5902 7.13036C13.1696 7.0638 13.7651 6.93335 14.1982 6.60756L13.597 5.80844C13.3903 5.96392 13.0262 6.07371 12.4761 6.1369C11.9383 6.19867 11.3178 6.20793 10.644 6.22801C9.98507 6.24764 9.28289 6.27772 8.63908 6.38949C7.9992 6.50057 7.3628 6.70064 6.86727 7.09828L7.49314 7.87821ZM14.1982 6.60756C14.6109 6.29708 14.9334 5.79495 15.2065 5.29266C15.4798 4.79001 15.7587 4.17675 16.0238 3.64859C16.3009 3.09666 16.5802 2.59963 16.8923 2.22123C17.2037 1.84374 17.5111 1.62899 17.8343 1.56422L17.6378 0.583715C17.0014 0.711267 16.5092 1.11412 16.1208 1.58492C15.7332 2.05482 15.4128 2.63678 15.1301 3.19995C14.8354 3.78691 14.5945 4.32487 14.328 4.81499C14.0613 5.30547 13.824 5.63765 13.597 5.80844L14.1982 6.60756ZM13.097 23.7959L17.3421 29.577L18.1482 28.9851L13.903 23.2041L13.097 23.7959ZM18.2451 29.281V21.6014H17.2451V29.281H18.2451ZM27.3139 21.1014H21.5726V22.1014H27.3139V21.1014ZM21.5726 29.781H27.3139V28.781H21.5726V29.781ZM21.0726 21.6014V25.4412H22.0726V21.6014H21.0726ZM21.0726 25.4412V29.281H22.0726V25.4412H21.0726ZM21.5726 25.9412H26.1983V24.9412H21.5726V25.9412ZM30.352 21.6014C29.8573 21.6739 29.8573 21.674 29.8573 21.6741C29.8573 21.6741 29.8573 21.6742 29.8573 21.6743C29.8574 21.6746 29.8574 21.6749 29.8575 21.6754C29.8576 21.6764 29.8578 21.6778 29.8581 21.6797C29.8587 21.6834 29.8595 21.689 29.8605 21.6963C29.8627 21.7109 29.8659 21.7326 29.8701 21.7608C29.8784 21.8173 29.8907 21.9001 29.9064 22.0053C29.9379 22.2158 29.9832 22.5164 30.0385 22.8771C30.149 23.5983 30.2997 24.5606 30.4603 25.5235C30.6206 26.4849 30.7916 27.4526 30.9427 28.1825C31.0179 28.5455 31.0903 28.8605 31.1562 29.0893C31.1882 29.2007 31.224 29.3104 31.264 29.3996C31.2828 29.4415 31.3136 29.5043 31.3601 29.5645C31.3832 29.5945 31.5247 29.781 31.7873 29.781V28.781C32.0305 28.781 32.151 28.9526 32.1517 28.9535C32.1758 28.9847 32.1827 29.0043 32.1762 28.9899C32.1658 28.9666 32.1456 28.9114 32.1172 28.8128C32.0622 28.6216 31.9959 28.3367 31.922 27.9797C31.7749 27.2696 31.6065 26.3175 31.4467 25.359C31.2871 24.402 31.1371 23.4444 31.0269 22.7256C30.9718 22.3663 30.9268 22.067 30.8955 21.8575C30.8798 21.7528 30.8676 21.6705 30.8593 21.6145C30.8552 21.5865 30.852 21.5651 30.8499 21.5506C30.8488 21.5434 30.848 21.538 30.8475 21.5343C30.8472 21.5325 30.847 21.5312 30.8469 21.5303C30.8468 21.5298 30.8468 21.5295 30.8467 21.5292C30.8467 21.5291 30.8467 21.5291 30.8467 21.529C30.8467 21.529 30.8467 21.5289 30.352 21.6014ZM31.7873 29.781C31.9222 29.781 32.0226 29.7294 32.0778 29.6932C32.1341 29.6561 32.1736 29.6153 32.1973 29.5881C32.2445 29.5342 32.2787 29.4768 32.3011 29.4363C32.3483 29.3508 32.3942 29.2439 32.4375 29.1329C32.5262 28.9057 32.6306 28.5919 32.743 28.229C32.9688 27.4999 33.239 26.5326 33.498 25.5713C33.7573 24.6086 34.0068 23.6464 34.1913 22.9253C34.2836 22.5647 34.3597 22.2641 34.4128 22.0536C34.4393 21.9484 34.4601 21.8657 34.4742 21.8092C34.4813 21.781 34.4867 21.7593 34.4904 21.7447C34.4922 21.7374 34.4936 21.7318 34.4945 21.7281C34.495 21.7262 34.4954 21.7248 34.4956 21.7238C34.4957 21.7233 34.4958 21.723 34.4959 21.7227C34.4959 21.7226 34.4959 21.7225 34.4959 21.7224C34.496 21.7224 34.496 21.7223 34.0108 21.6014C33.5256 21.4805 33.5256 21.4806 33.5256 21.4806C33.5256 21.4807 33.5256 21.4807 33.5256 21.4809C33.5255 21.4811 33.5254 21.4814 33.5253 21.4819C33.5251 21.4828 33.5247 21.4841 33.5243 21.486C33.5234 21.4896 33.522 21.4951 33.5202 21.5023C33.5166 21.5167 33.5112 21.5382 33.5042 21.5662C33.4902 21.6222 33.4695 21.7045 33.4431 21.8092C33.3903 22.0187 33.3145 22.3181 33.2226 22.6774C33.0386 23.3962 32.7903 24.354 32.5324 25.3112C32.2742 26.2697 32.0079 27.2224 31.7878 27.9332C31.6772 28.2903 31.5813 28.5764 31.506 28.7692C31.4674 28.8682 31.4404 28.9263 31.4255 28.9532C31.4168 28.969 31.4228 28.9547 31.4445 28.9299C31.4556 28.9173 31.4831 28.8874 31.5281 28.8578C31.5721 28.8289 31.6621 28.781 31.7873 28.781V29.781ZM34.0108 21.6014C33.5302 21.7392 33.5302 21.7393 33.5302 21.7393C33.5302 21.7394 33.5302 21.7395 33.5303 21.7396C33.5303 21.7399 33.5304 21.7402 33.5306 21.7407C33.5309 21.7416 33.5313 21.7431 33.5318 21.7449C33.5329 21.7487 33.5345 21.7543 33.5366 21.7617C33.5408 21.7764 33.5471 21.7982 33.5553 21.8267C33.5716 21.8836 33.5956 21.967 33.6262 22.0731C33.6875 22.2854 33.7751 22.5885 33.8807 22.9522C34.092 23.6793 34.3756 24.6488 34.6645 25.6174C34.9532 26.5852 35.2482 27.5553 35.4821 28.2823C35.5987 28.6447 35.702 28.9527 35.7827 29.1714C35.8223 29.2788 35.8607 29.376 35.8953 29.4501C35.9111 29.484 35.9353 29.5332 35.9669 29.5799C35.9808 29.6006 36.0135 29.6471 36.0653 29.6923C36.0963 29.7192 36.2649 29.8626 36.5128 29.8068L36.2932 28.8312C36.5358 28.7766 36.6981 28.9173 36.7219 28.938C36.7665 28.9768 36.7909 29.0133 36.7957 29.0205C36.8089 29.0401 36.8111 29.0479 36.8014 29.027C36.7849 28.9918 36.7582 28.9262 36.7208 28.8251C36.6477 28.627 36.5496 28.3354 36.434 27.976C36.2036 27.2596 35.911 26.2978 35.6228 25.3315C35.3348 24.366 35.0519 23.399 34.841 22.6731C34.7356 22.3103 34.6481 22.0078 34.5871 21.7961C34.5566 21.6902 34.5326 21.6071 34.5164 21.5504C34.5082 21.5221 34.502 21.5003 34.4978 21.4857C34.4957 21.4784 34.4941 21.4729 34.493 21.4692C34.4925 21.4673 34.4921 21.4659 34.4918 21.465C34.4917 21.4646 34.4916 21.4642 34.4915 21.464C34.4915 21.4639 34.4915 21.4638 34.4915 21.4637C34.4914 21.4637 34.4914 21.4636 34.0108 21.6014ZM36.5128 29.8068C36.7026 29.7641 36.7985 29.6294 36.8127 29.6103C36.8444 29.5678 36.8642 29.528 36.8742 29.5069C36.8956 29.4615 36.9118 29.4145 36.9232 29.3786C36.9475 29.3024 36.9732 29.2038 36.9994 29.0943C37.0526 28.8718 37.1174 28.5623 37.189 28.1999C37.3324 27.473 37.5073 26.5102 37.6763 25.5518C37.8454 24.5927 38.0092 23.6351 38.1307 22.9175C38.1915 22.5586 38.2417 22.2596 38.2767 22.0503C38.2942 21.9457 38.3079 21.8634 38.3172 21.8073C38.3219 21.7793 38.3255 21.7578 38.3279 21.7433C38.3291 21.736 38.33 21.7305 38.3306 21.7268C38.3309 21.7249 38.3312 21.7235 38.3313 21.7226C38.3314 21.7221 38.3315 21.7218 38.3315 21.7215C38.3315 21.7214 38.3315 21.7213 38.3316 21.7213C38.3316 21.7212 38.3316 21.7212 37.8383 21.6394C37.345 21.5576 37.345 21.5577 37.345 21.5577C37.345 21.5578 37.345 21.5579 37.345 21.558C37.3449 21.5582 37.3449 21.5585 37.3448 21.559C37.3447 21.5599 37.3444 21.5613 37.3441 21.5631C37.3435 21.5667 37.3426 21.5722 37.3414 21.5794C37.339 21.5938 37.3355 21.6152 37.3308 21.6431C37.3215 21.699 37.3079 21.781 37.2904 21.8853C37.2555 22.0941 37.2054 22.3924 37.1448 22.7505C37.0235 23.4669 36.8601 24.4221 36.6915 25.3781C36.5228 26.3349 36.3493 27.2896 36.2079 28.0062C36.137 28.3655 36.0752 28.6593 36.0268 28.862C36.0022 28.965 35.9834 29.0345 35.9706 29.0744C35.9635 29.0966 35.963 29.0946 35.9697 29.0804C35.9723 29.0748 35.9853 29.0471 36.0106 29.0131C36.0186 29.0025 36.1087 28.8727 36.2932 28.8312L36.5128 29.8068Z" fill="black"/>
<path d="M12.0039 29.2812V21.6016" stroke="#24C57A" stroke-linecap="round"/>
</svg>
