<svg width="11" height="11" viewBox="0 0 11 11" fill="none" xmlns="http://www.w3.org/2000/svg">
<path id="Vector" d="M10 4.83329H6V0.833293C6 0.656482 5.92976 0.486913 5.80474 0.361888C5.67971 0.236864 5.51014 0.166626 5.33333 0.166626C5.15652 0.166626 4.98695 0.236864 4.86193 0.361888C4.7369 0.486913 4.66667 0.656482 4.66667 0.833293V4.83329H0.666667C0.489856 4.83329 0.320287 4.90353 0.195262 5.02855C0.070238 5.15358 0 5.32315 0 5.49996C0 5.67677 0.070238 5.84634 0.195262 5.97136C0.320287 6.09639 0.489856 6.16663 0.666667 6.16663H4.66667V10.1666C4.66667 10.3434 4.7369 10.513 4.86193 10.638C4.98695 10.7631 5.15652 10.8333 5.33333 10.8333C5.51014 10.8333 5.67971 10.7631 5.80474 10.638C5.92976 10.513 6 10.3434 6 10.1666V6.16663H10C10.1768 6.16663 10.3464 6.09639 10.4714 5.97136C10.5964 5.84634 10.6667 5.67677 10.6667 5.49996C10.6667 5.32315 10.5964 5.15358 10.4714 5.02855C10.3464 4.90353 10.1768 4.83329 10 4.83329Z" fill="#222222"/>
</svg>
