<svg width="38" height="38" viewBox="0 2 38 38" fill="none" xmlns="http://www.w3.org/2000/svg">
<path d="M25.2452 13.9164C24.9452 13.7157 24.7145 13.4306 24.5835 13.0988L20.8276 2.91387C19.9538 1.00003 19.1474 1.39472 18.7441 1.39474" stroke="#24C57A" strokeWidth="1.2" strokeLinecap="round" strokeLinejoin="round"/>
<path d="M17.4652 2.91382L13.7075 13.0988C13.5765 13.4305 13.3458 13.7156 13.0458 13.9164C12.7458 14.1171 12.3907 14.2241 12.0273 14.2231H2.79732C1.09538 14.2231 0.347828 16.3013 1.69051 17.3191L8.25877 23.1043C8.55254 23.3261 8.76722 23.6331 8.87215 23.9814C8.97707 24.3297 8.96688 24.7016 8.84301 25.044L6.44433 34.9962C5.86008 36.593 7.75254 37.9679 9.1805 36.9838L18.1021 31.442C18.4076 31.2318 18.7719 31.119 19.1454 31.119C19.5188 31.119 19.8832 31.2318 20.1887 31.442L29.1103 36.9838C30.54 37.9679 32.4307 36.5948 31.8464 34.9962L29.4477 25.044C29.3239 24.7016 29.3137 24.3297 29.4186 23.9814C29.5235 23.6331 29.7382 23.3261 30.032 23.1043L36.6002 17.3191C37.9411 16.3013 37.1972 14.2231 35.4916 14.2231" stroke="black" strokeWidth="1.2" strokeLinecap="round" strokeLinejoin="round"/>
<path d="M27.6152 14.0263H33.2604" stroke="#24C57A" strokeWidth="1.2" strokeLinecap="round" strokeLinejoin="round"/>
</svg>
