<svg width="48" height="39" viewBox="-1.2 0 48 39" fill="none" xmlns="http://www.w3.org/2000/svg">
<path d="M5.08419 0.736816C8.13371 0.736816 8.71458 3.93538 8.62382 5.53466V8.20013M5.08419 0.736816C1.27228 0.736816 1 3.13574 1 4.73502C1 6.3343 2.08912 8.20013 5.08419 8.20013C7.48024 8.20013 8.4423 8.20013 8.62382 8.20013M5.08419 0.736816H30.4062C30.9507 0.736816 32.2576 1.00336 33.1289 2.06955C34.0002 3.13574 34.2181 4.82387 34.2181 5.53466L34.29 12.4649M8.62382 8.20013V34.0552C8.62382 36.4541 10.2575 38.3199 12.1634 38.3199M12.1634 38.3199C14.0694 38.3199 15.9754 37.2538 15.9754 35.1214C15.9754 33.4388 15.1585 30.8566 12.1634 30.8566H34.2181M12.1634 38.3199H35.3072C37.4854 38.3199 40.4805 37.7868 40.4805 34.5883C40.4805 31.6563 38.5745 30.8566 35.3072 30.8566H34.2181M34.2181 30.8566V24.6153M34.2181 24.6153C36.3963 23.016 41.344 18.2832 42.1142 17.5293C42.6587 16.9962 43.4756 15.93 43.2033 14.8638M34.2181 24.6153C32.3121 25.5257 30.6784 25.2591 29.0448 24.726M26.8665 26.8584L29.0448 24.726M45.3815 8.73323C42.6587 6.3343 40.1463 6.8674 38.8468 8.20013C38.5941 8.45932 38.2928 8.75469 37.9559 9.07682C36.0684 10.8814 33.0637 13.5257 31.223 15.3538C30.9144 15.6602 30.6385 15.9438 30.4062 16.1965C27.9556 18.862 28.7725 23.1268 29.0448 24.726M45.3815 8.73323C46.4706 10.066 47.832 11.1321 43.2033 14.8638M45.3815 8.73323L41.2973 12.7314M29.0448 24.726L31.223 22.5937L31.4953 22.3271L34.29 19.5912L37.9559 16.0025L41.2973 12.7314M43.2033 14.8638C42.9594 13.9087 41.8419 13.2645 41.2973 12.7314" stroke="black" strokeWidth="1.2" strokeLinecap="round" strokeLinejoin="round"/>
<path d="M35.541 11.2861V14.8493V18.4124M31.4751 15.087V18.7069V22.3269M39.7318 7.45027V10.807V14.2698" stroke="black" strokeWidth="1.2" strokeLinecap="round" strokeLinejoin="round"/>
<path d="M11.3428 27.125C12.9764 26.3254 15.9715 27.125 17.8775 27.3915C19.7834 27.6581 21.1448 26.8584 22.7785 26.8584C24.4122 26.8584 25.229 27.9246 26.8627 26.8584" stroke="black" strokeWidth="1.2" strokeLinecap="round" strokeLinejoin="round"/>
<path d="M11.3428 22.3272H26.8627M11.3428 18.329H23.8555M17.3787 14.8639H29.5855M11.3428 7.40058V10.8657C11.3428 11.4545 11.8304 11.9319 12.4319 11.9319H30.13C30.7315 11.9319 31.2192 11.4545 31.2192 10.8657V7.40058C31.2192 6.81175 30.7315 6.3344 30.13 6.3344H12.4319C11.8304 6.3344 11.3428 6.81175 11.3428 7.40058Z" stroke="black" strokeWidth="1.2" strokeLinecap="round" strokeLinejoin="round"/>
<path d="M15.427 14.8638H11.3428M25.7736 18.3289H27.6795" stroke="#24C57A" strokeWidth="1.2" strokeLinecap="round" strokeLinejoin="round"/>
</svg>
