<svg width="36" height="53" viewBox="0 0 36 53" fill="none" xmlns="http://www.w3.org/2000/svg">
<path d="M14.6002 13.892C14.0771 13.892 13.3199 13.3976 13.3199 12.4087V10.5998C12.1009 11.0071 11.4617 12.1059 11.4617 13.3976C11.4617 15.036 12.8668 16.3642 14.6002 16.3642C16.3335 16.3642 17.7386 15.036 17.7386 13.3976C17.7386 12.1962 17.1348 11.1616 16.0484 10.6952V12.4087C16.0484 13.1674 15.6463 13.892 14.6002 13.892Z" fill="black"/>
<path d="M13.3199 7.03603C5.80899 7.68013 1 13.0081 1 21.8029V41.0857C1 45.0411 3.09233 46.03 6.23083 46.03H6.75391H24.5387C29.2465 46.03 29.2465 43.5579 29.2465 40.0968V21.8029C29.2465 19.222 28.7626 16.8905 27.8713 14.8809C25.7848 10.1765 21.6177 7.2358 16.0484 6.98713M13.3199 7.03603V3.50897C13.3199 2.94559 13.3199 1.53125 14.6002 1.53125C15.9737 1.53125 16.0484 2.82057 16.0484 3.50897V6.98713M13.3199 7.03603V10.5998M16.0484 6.98713V10.6952M13.3199 10.5998C12.1009 11.0071 11.4617 12.1059 11.4617 13.3976C11.4617 15.036 12.8668 16.3642 14.6002 16.3642C16.3335 16.3642 17.7386 15.036 17.7386 13.3976C17.7386 12.1962 17.1348 11.1616 16.0484 10.6952M13.3199 10.5998V12.4087C13.3199 13.3976 14.0771 13.892 14.6002 13.892C15.6463 13.892 16.0484 13.1674 16.0484 12.4087V10.6952M7.80008 31.6915C7.80008 30.7027 7.10336 30.2082 6.23083 30.2082C5.18466 30.2082 4.66624 31.1971 4.6644 31.5871C4.66158 32.186 5.03168 33.0704 6.23365 33.0704C7.43562 33.0704 7.80008 34.0281 7.80008 34.6581C7.80008 35.2882 7.27699 36.1414 6.23083 36.1414C5.18466 36.1414 4.66158 35.1525 4.66158 34.6581M13.7787 34.2646L11.9847 30.2082L10.5624 34.2646M13.7787 34.2646L14.6002 36.1414M13.7787 34.2646H10.5624M10.5624 34.2646L9.89241 36.1414M16.6925 30.2082V36.1414H19.831M25.0618 30.2082H21.9233V33.1748M25.0618 36.1414H21.9233V33.1748M21.9233 33.1748H25.0618" stroke="black" stroke-width="1.2" stroke-linecap="round" stroke-linejoin="round"/>
<path d="M6.94336 47.931C6.94336 49.7331 8.95293 51.4688 11.4614 51.4688H29.7693C32.3847 51.4688 35.0001 49.491 35.0001 46.5244V25.2639C35.0001 20.4738 32.1668 16.9375 31.0334 16.4062" stroke="#24C57A" stroke-width="1.2" stroke-linecap="round" stroke-linejoin="round"/>
</svg>
