<svg width="40" height="41" viewBox="0 0 40 41" fill="none" xmlns="http://www.w3.org/2000/svg">
<path d="M29.3465 39.4944H38.7954C37.5122 37.3246 33.476 32.9852 27.5967 32.9852C21.7175 32.9852 14.6483 37.3246 11.8487 39.4944H26.8968M14.6483 34.6981C12.8985 34.3555 6.94927 34.3555 1 39.4944H7.29923M16.3981 32.9852C16.0482 31.2722 18.4979 28.5315 19.1978 27.8463C18.8478 27.3895 17.8679 26.4075 16.7481 26.1334C15.3482 25.7908 10.7988 25.7908 8.69906 25.1056C6.57323 24.4119 3.79966 22.3649 3.79966 18.2538V15.1705C3.79966 13.115 6.94927 13.4576 6.94927 14.8279C6.94927 16.0841 7.01926 18.802 7.29923 19.6242C8.3491 19.2816 9.74893 17.226 9.74893 15.1705C9.74893 13.115 13.2485 13.115 13.2485 15.5131C13.2485 17.9112 11.8487 20.9945 9.74893 22.0223M13.5985 22.3649C14.2984 22.3649 15.7682 22.4334 16.0482 22.7075C14.9983 20.9945 16.0482 19.2816 16.3981 18.5964C16.7481 17.9112 19.8977 14.4853 19.8977 13.115C19.8977 11.7446 19.8977 9.34647 17.448 7.29093C15.6982 5.92058 17.7979 3.17986 19.8977 5.2354C21.9974 7.29093 23.0473 9.34647 23.0473 11.7446M25.497 10.7168C26.1969 9.68906 26.5469 7.63352 25.147 5.92057C24.0972 4.55021 26.8968 2.15208 28.2967 4.55021C29.6965 6.94834 31.4463 14.1427 22.6973 15.1705C21.9974 16.8835 19.5477 18.5964 19.5477 20.6519C19.5477 22.2964 19.5477 23.3927 19.5477 23.7353C20.2476 24.0778 21.7175 25.0371 21.9974 26.1334L23.3973 25.7908C24.4471 25.1056 24.0972 21.6797 23.3973 20.3094C22.6973 18.939 24.4471 16.8834 26.1969 18.2538C27.5967 19.3501 27.4801 22.8217 27.2468 24.4204C29.3465 24.0778 31.4463 21.6797 31.4463 18.5964M33.1961 17.226C34.5959 16.5409 37.0456 21.6797 30.3964 26.476C27.2468 28.8741 22.3474 28.8741 21.2975 30.2445C20.4576 31.3407 20.2476 31.8432 20.2476 31.9574" stroke="black" strokeWidth="1.2" strokeLinecap="round" strokeLinejoin="round"/>
<path d="M11.5922 7.64018C11.5922 8.43209 10.9328 9.09572 10.0924 9.09572C9.25204 9.09572 8.59268 8.43209 8.59268 7.64018C8.59268 6.84828 9.25204 6.18464 10.0924 6.18464C10.9328 6.18464 11.5922 6.84828 11.5922 7.64018Z" stroke="#24C57A" strokeWidth="1.2"/>
<path d="M15.0929 1.81622C15.0929 2.41892 14.5903 2.92917 13.9431 2.92917C13.296 2.92917 12.7934 2.41892 12.7934 1.81622C12.7934 1.21353 13.296 0.703272 13.9431 0.703272C14.5903 0.703272 15.0929 1.21353 15.0929 1.81622Z" stroke="#ECBF2B" strokeWidth="1.2"/>
<path d="M12.9926 30.2511C12.9926 31.043 12.3332 31.7067 11.4928 31.7067C10.6524 31.7067 9.99307 31.043 9.99307 30.2511C9.99307 29.4592 10.6524 28.7956 11.4928 28.7956C12.3332 28.7956 12.9926 29.4592 12.9926 30.2511Z" stroke="black" strokeWidth="1.2"/>
<path d="M36.0927 10.381C36.0927 11.1729 35.4333 11.8365 34.5929 11.8365C33.7525 11.8365 33.0932 11.1729 33.0932 10.381C33.0932 9.58909 33.7525 8.92545 34.5929 8.92545C35.4333 8.92545 36.0927 9.58909 36.0927 10.381Z" stroke="black" strokeWidth="1.2"/>
</svg>
