<svg width="39" height="43" viewBox="0 0 39 43" fill="none" xmlns="http://www.w3.org/2000/svg">
<path d="M6.83864 13.9861C6.83864 11.9295 6.83864 10.954 6.83864 10.5847C6.83864 10.4711 6.85799 10.3591 6.89585 10.252L10.1229 1.12573M6.83864 13.9861C7.56847 17.2012 12.3124 16.4867 12.3124 13.9861M6.83864 13.9861C6.83864 15.5936 5.37898 16.3974 3.91932 16.3974M14.1369 1.12573L12.3311 10.3183C12.3187 10.3818 12.3124 10.4464 12.3124 10.5111V13.9861M12.3124 13.9861C12.3124 17.2012 17.7861 17.2012 17.7861 13.9861M17.7861 1.12573V10.4138V13.9861M17.7861 13.9861C17.7861 17.2012 23.6247 16.844 23.6247 13.9861M21.8002 1.12573L23.606 10.3183C23.6185 10.3818 23.6247 10.4464 23.6247 10.5111V13.9861M23.6247 13.9861C23.6247 17.2012 29.0985 17.2012 29.0985 13.9861M25.4493 1.12573L29.0292 10.2375C29.075 10.354 29.0985 10.478 29.0985 10.6032V13.9861M29.0985 13.9861C29.4391 15.4868 30.7339 16.2092 32.0178 16.2623M3.91932 16.3974C2.45962 16.3974 0.999926 15.5937 1 13.9861C1.00008 12.3258 1.00003 11.2068 1.00001 10.67C1 10.5015 1.04258 10.3364 1.1238 10.1887L5.82386 1.64379C5.99962 1.32425 6.33538 1.12573 6.70006 1.12573H29.2371C29.6017 1.12573 29.9375 1.32425 30.1133 1.64379L30.5581 2.4526M3.91932 16.3974V22.9169V28.6326V34.0628C3.91932 34.6151 4.36704 35.0628 4.91932 35.0628H10.1229M25.4493 35.0628H17.7861M32.0178 16.2623C33.4845 16.3229 34.9371 15.51 34.9371 13.9861V10.6656C34.9371 10.5003 34.8962 10.3376 34.8179 10.192L31.288 3.62636M32.0178 16.2623V20.7735M22.53 25.0603H17.7861M10.1229 35.0628V26.0603C10.1229 25.508 10.5706 25.0603 11.1229 25.0603H17.7861M10.1229 35.0628H17.7861M17.7861 25.0603L17.7861 35.0628M19.6107 29.3471V31.1333M16.3264 29.3471V31.1333M24.7195 22.5597H11.1229C10.5706 22.5597 10.1229 22.112 10.1229 21.5597V21.4163C10.1229 20.864 10.5706 20.4163 11.1229 20.4163H24.8142C25.3665 20.4163 25.8142 20.864 25.8142 21.4163V21.8452" stroke="black" strokeWidth="1.2" strokeLinecap="round" strokeLinejoin="round"/>
<path d="M27.2742 36.6847C24.9381 34.3297 22.5303 31.2184 22.5303 28.2754C22.5303 21.488 28.3689 20.7736 30.1935 20.7736C34.2076 20.7736 37.8567 22.917 37.8567 28.2754C37.8567 31.4905 34.9374 34.6114 33.0524 36.6847M27.2742 36.6847C28.0923 37.5094 28.9016 38.2413 29.5956 38.8408C29.9444 39.1422 30.4564 39.1594 30.81 38.8636C31.4827 38.3008 32.265 37.5506 33.0524 36.6847M27.2742 36.6847C26.0578 36.9776 23.625 37.9207 23.625 39.3496C23.625 41.1358 28.7338 41.493 30.1935 41.493C31.6532 41.493 36.762 41.1358 36.762 39.3496C36.762 38.2779 35.6314 37.4106 33.0524 36.6847" stroke="black" strokeWidth="1.2" strokeLinecap="round" strokeLinejoin="round"/>
<path d="M34.1347 28.0516C34.1347 30.2656 32.3012 32.0605 30.0395 32.0605C27.7778 32.0605 25.9443 30.2656 25.9443 28.0516C25.9443 25.8375 27.7778 24.0426 30.0395 24.0426C32.3012 24.0426 34.1347 25.8375 34.1347 28.0516Z" fill="#24C57A"/>
</svg>
