<svg width="19" height="20" viewBox="0 0 19 20" fill="none" xmlns="http://www.w3.org/2000/svg">
<path d="M10.2916 2.7749C10.8974 2.77487 11.4803 3.00633 11.921 3.42192C12.3618 3.83751 12.6271 4.40582 12.6626 5.01057L12.6666 5.1499V8.31657H14.2499C14.8319 8.31647 15.3936 8.53007 15.8285 8.9168C16.2634 9.30353 16.5412 9.83649 16.6091 10.4145L16.621 10.5522L16.6249 10.6916L16.6091 10.8467L15.8127 14.8304C15.511 16.1177 14.6236 17.0439 13.5881 17.0312L13.4583 17.0249H7.12492C6.93101 17.0249 6.74386 16.9537 6.59896 16.8248C6.45405 16.696 6.36148 16.5184 6.33879 16.3259L6.33325 16.2332L6.33404 8.6839C6.33419 8.54507 6.37083 8.40872 6.44031 8.28853C6.50979 8.16834 6.60965 8.06853 6.72988 7.99911C7.06737 7.80403 7.35166 7.52888 7.55765 7.19794C7.76365 6.86699 7.88501 6.49043 7.91104 6.10149L7.91659 5.94157V5.1499C7.91659 4.52001 8.16681 3.91592 8.61221 3.47052C9.05761 3.02512 9.6617 2.7749 10.2916 2.7749ZM3.95825 8.31657C4.15216 8.31659 4.33931 8.38778 4.48421 8.51664C4.62912 8.64549 4.72169 8.82304 4.74438 9.01561L4.74992 9.10824V16.2332C4.74989 16.4271 4.6787 16.6143 4.54985 16.7592C4.421 16.9041 4.24345 16.9967 4.05088 17.0194L3.95825 17.0249H3.16659C2.76713 17.025 2.38239 16.8742 2.08948 16.6026C1.79658 16.3309 1.61717 15.9587 1.58721 15.5603L1.58325 15.4416V9.8999C1.58313 9.50045 1.73399 9.1157 2.0056 8.8228C2.27722 8.5299 2.6495 8.35049 3.04784 8.32053L3.16659 8.31657H3.95825Z" fill="#BBBBBB"/>
</svg>
