<svg width="39" height="42" viewBox="0 0 39 42" fill="none" xmlns="http://www.w3.org/2000/svg">
<path fill-rule="evenodd" clip-rule="evenodd" d="M28.0851 5.97386L38.1019 8.84613L31.6197 31.4522C30.857 34.1122 29.5437 36.2947 27.6583 37.953L27.6563 37.9547C25.7862 39.5906 23.541 40.6196 20.9508 41.053L20.9467 41.0537C18.357 41.4758 15.588 41.2479 12.6554 40.407C9.69195 39.5573 7.20594 38.279 5.23225 36.5476L5.2291 36.5449C3.26158 34.8043 1.9074 32.7421 1.19955 30.3647L1.19879 30.3622C0.490744 27.9607 0.539487 25.417 1.30176 22.7586L7.78394 0.152588L17.8171 3.02955L11.537 24.931C11.2466 25.9436 11.2159 26.8735 11.4148 27.739C11.6254 28.6114 12.0454 29.3628 12.687 30.0096C13.3196 30.6472 14.1534 31.131 15.227 31.4389C16.3009 31.7468 17.2569 31.7761 18.1171 31.5692L18.1221 31.568C19.0105 31.3592 19.7659 30.9435 20.4075 30.3134C21.0444 29.6881 21.5152 28.8861 21.805 27.8753L28.0851 5.97386ZM18.3509 32.5415C17.2971 32.795 16.1639 32.7478 14.9514 32.4001C13.7389 32.0525 12.7474 31.4904 11.9771 30.7139C11.2067 29.9374 10.6948 29.0222 10.4414 27.9683C10.1989 26.9176 10.2437 25.8133 10.5757 24.6554L16.5802 3.71518L8.46956 1.38949L2.26302 23.0343C1.54574 25.5357 1.51072 27.8841 2.15797 30.0794C2.80835 32.2637 4.05293 34.1692 5.8917 35.7959C7.7336 37.4116 10.0801 38.6282 12.9311 39.4458C15.7493 40.2539 18.3676 40.4609 20.7858 40.0667C23.2072 39.6616 25.2778 38.7067 26.9978 37.2021C28.721 35.6865 29.9412 33.678 30.6585 31.1765L36.865 9.53175L28.7708 7.21076L22.7662 28.151C22.4342 29.3089 21.8815 30.2675 21.1082 31.0269C20.3348 31.7864 19.4157 32.2912 18.3509 32.5415Z" fill="#222222"/>
</svg>
