<svg width="130" height="52" viewBox="0 0 130 52" fill="none" xmlns="http://www.w3.org/2000/svg">
<path d="M81.12 19.8634C81.9155 19.8634 82.6671 19.3692 82.9703 18.5723L85.1458 12.7709C85.7171 11.2437 84.3283 9.45387 82.2407 10.2375C81.9595 10.3443 81.7353 10.5759 81.6299 10.8608L79.0852 17.6417C78.9753 17.9311 78.9929 18.2561 79.1379 18.5277C79.6434 19.4672 80.3993 19.8679 81.1156 19.8679L81.12 19.8634Z" fill="#24C57A"/>
<path d="M91.6137 19.8635C92.4092 19.8635 93.1607 19.3693 93.464 18.5723L95.824 12.2811C95.9295 11.9962 95.9163 11.6712 95.7757 11.404C94.7297 9.40938 92.5147 9.81899 91.9433 11.3417L89.5832 17.6373C89.4734 17.9267 89.491 18.2517 89.636 18.5233C90.1414 19.4628 90.8973 19.8635 91.6137 19.8635Z" fill="#24C57A"/>
<path d="M129.844 3.54115C129.769 3.12708 129.536 1.86707 128.494 1.03448C127.233 0.0282543 125.453 0.112849 123.73 1.26155C120.5 3.41648 118.496 6.86705 116.962 9.95252C113.859 16.2036 112.431 21.4173 112.471 26.3549C112.471 26.6933 112.479 27.1608 112.515 27.6951C112.528 27.9088 112.444 28.1181 112.286 28.2561C110.823 29.5517 109.443 30.4689 107.553 30.5579C106.88 30.5891 105.878 30.46 104.819 28.9729C103.215 26.7245 105.026 22.005 106.107 19.1867L106.269 18.7637C106.436 18.3897 106.59 18.0291 106.722 17.6773C106.863 17.3167 106.674 16.9115 106.309 16.7824L104.489 16.1546C103.795 15.9142 103.044 16.257 102.745 16.9338C101.677 19.3826 99.8089 22.2232 98.4289 23.3941C96.3589 25.1483 94.1351 26.6221 91.8145 27.7708C86.7692 30.2685 81.4777 31.0566 76.907 29.988C75.8302 29.7343 74.3316 29.1866 73.2944 27.9934C71.6243 26.07 71.3606 22.9044 71.8397 20.1706C71.91 19.9124 71.9759 19.6586 72.033 19.4137C72.1517 18.9195 71.8309 18.4342 71.3386 18.3407L70.2795 18.1404L69.9323 18.038C69.0665 17.7797 68.1567 18.3229 67.9853 19.2223C67.9765 19.2624 67.9721 19.3024 67.9633 19.3425C66.847 23.3674 64.065 29.1065 60.0877 32.6461C59.5734 33.1002 58.7955 32.5837 59.0021 31.9203C59.301 30.9586 59.5822 29.9969 59.8547 29.0352C60.1975 27.8242 60.7864 25.7182 61.0721 24.6898C61.6786 22.8331 62.1357 20.7183 62.351 19.6453C62.4257 19.2802 62.1928 18.924 61.8324 18.8438L59.2526 18.2784C58.8966 18.1982 58.545 18.4253 58.4571 18.7815L57.4243 23.029C57.4068 23.1003 57.354 23.2739 57.2837 23.5232C57.0815 24.1377 56.875 24.6719 56.6728 25.0415C55.8861 26.5108 54.4841 28.5054 52.3043 29.6808C51.5439 30.0904 50.0716 30.696 48.7356 30.1928C48.239 30.0058 47.8302 29.6586 47.65 29.2623C47.4215 28.7681 47.4479 28.029 47.483 27.517C47.6676 25.0281 48.5598 22.5437 49.5838 20.0148C49.7244 19.6675 49.5618 19.2668 49.219 19.1243L46.815 18.1092C46.4722 17.9623 46.0723 18.1315 45.9316 18.4787C44.7758 21.3238 43.7649 24.151 43.5364 27.2187C43.4661 28.1804 43.4441 29.614 44.0638 30.9631C44.6835 32.3077 45.8833 33.3941 47.3512 33.9506C49.4168 34.7298 51.8296 34.4715 54.1545 33.2249C54.2512 33.1715 54.3523 33.118 54.449 33.0601C54.1677 33.8616 53.8732 34.6496 53.5568 35.4288C53.4645 35.6603 53.2536 35.8206 53.0074 35.8473C52.1109 35.9453 51.2055 36.021 50.2606 36.0966C47.6325 36.3104 44.912 36.533 42.2399 37.3745C38.4998 38.5543 32.9886 42.3255 34.1225 47.4234C34.6235 49.6807 36.276 51.2702 38.6493 51.7778C39.3437 51.9247 40.0556 52.0004 40.772 52.0004C43.866 52.0004 47.1227 50.6558 49.8211 48.1981C52.4888 45.7671 54.471 42.8197 56.0268 39.6229C56.1103 39.4537 56.2597 39.329 56.4399 39.2756C61.8896 37.6683 65.9724 32.8242 68.6446 27.9444C69.0533 28.9106 69.5982 29.8233 70.3102 30.6425C71.6814 32.2187 73.6504 33.3451 76.0016 33.8927C77.7508 34.3023 79.4604 34.476 81.1085 34.476C86.0484 34.476 90.4258 32.9088 93.533 31.3683C95.8711 30.2106 98.1124 28.7636 100.218 27.0628C100.288 28.5766 100.683 30.0326 101.598 31.3104C103.483 33.9551 105.738 34.5561 107.399 34.5561C107.509 34.5561 107.619 34.5561 107.724 34.5472C110.045 34.4404 111.829 33.5989 113.38 32.4724C113.657 32.2721 114.035 32.3255 114.268 32.5793C114.589 32.931 114.971 33.2516 115.42 33.5143C117.819 34.9212 121.071 34.3914 123.08 33.305C124.842 32.3522 125.858 31.5775 127.066 30.2196C127.321 29.9346 127.29 29.4894 127 29.24L125.014 27.5303C124.737 27.2899 124.319 27.3211 124.073 27.5971C123.212 28.5544 122.531 29.0619 121.217 29.7699C120.008 30.4244 118.263 30.549 117.402 30.0459C117.402 30.0459 117.402 30.0459 117.397 30.0459C117.024 29.8233 117.011 29.2757 117.331 28.9818C117.472 28.8527 117.613 28.7236 117.758 28.5989C120.544 26.1368 122.957 23.2427 124.935 19.997C125.95 18.3318 126.846 16.5642 127.607 14.7477C128.248 13.2205 128.798 11.6355 129.25 10.0416C129.751 8.26063 130.274 5.91424 129.835 3.52334L129.844 3.54115ZM47.1886 45.2328C44.7977 47.41 41.9191 48.394 39.4799 47.8731C38.2229 47.6015 38.0472 46.8134 37.99 46.5552C37.5286 44.4848 40.9038 42.0093 43.4265 41.2124C45.6767 40.5045 48.0632 40.3086 50.5858 40.1037C50.8276 40.0859 51.0737 40.0637 51.3198 40.0459C50.1771 41.9782 48.8279 43.7413 47.1886 45.2328ZM126.042 5.78067C126.042 5.82965 126.038 5.87863 126.033 5.9276C125.967 6.96054 125.734 7.96677 125.453 8.95964C125.049 10.3977 124.548 11.8269 123.972 13.2027C123.291 14.8367 122.482 16.4218 121.573 17.9133C120.487 19.6987 119.287 21.3906 117.89 22.891C116.756 24.1065 116.527 23.4297 116.764 22.3345C117.45 19.1867 118.536 15.7094 120.496 11.7602C120.5 11.7468 120.509 11.7334 120.513 11.7201C120.953 10.8341 121.414 9.95697 121.92 9.11102C122.421 8.27398 122.97 7.46811 123.594 6.72012C123.858 6.40845 124.135 6.1057 124.429 5.82075C124.609 5.64265 124.79 5.46456 124.987 5.30873C125.172 5.1618 125.409 4.98816 125.642 4.94364C125.748 4.92583 125.866 4.94363 125.937 5.02823C125.985 5.08611 126.007 5.1618 126.02 5.24194C126.051 5.42449 126.047 5.60703 126.038 5.78958L126.042 5.78067Z" fill="#24C57A"/>
<path d="M30.1243 0.789667L27.6236 0.0283176C27.2676 -0.0785384 26.8897 0.126269 26.7842 0.486908L22.6398 14.5207C18.4075 14.1867 14.1488 14.0443 9.89014 14.1022L13.5731 1.63561C13.6786 1.27497 13.4764 0.892071 13.1204 0.785215L10.6241 0.0283176C10.2681 -0.0785384 9.89014 0.126269 9.78467 0.486908L5.72816 14.2268C4.02733 14.3025 2.32649 14.4005 0.634451 14.5385C0.260883 14.5696 -0.0159967 14.9036 0.0147677 15.282L0.234513 17.9134C0.265278 18.2873 0.590502 18.5634 0.959675 18.5322C2.1463 18.4343 3.33732 18.363 4.52395 18.2963L0.0279524 33.5277C-0.0775256 33.8883 0.124641 34.2712 0.480629 34.3781L2.97694 35.135C3.33293 35.2418 3.71089 35.037 3.81637 34.6764L8.69912 18.136C12.9622 18.038 17.2297 18.1493 21.4751 18.4565L17.0275 33.5277C16.922 33.8883 17.1242 34.2712 17.4802 34.3781L19.9765 35.135C20.3325 35.2418 20.7104 35.037 20.8159 34.6764L30.577 1.63561C30.6825 1.27497 30.4803 0.892071 30.1243 0.785215V0.789667Z" fill="#24C57A"/>
<path d="M34.4989 34.4806C37.0128 34.4806 40.0057 32.9267 41.6362 30.8074C41.8824 30.4913 41.7901 30.0238 41.4517 29.8145L39.219 28.4076C38.9466 28.234 38.5818 28.2785 38.3708 28.5234C37.4127 29.632 35.5932 30.5403 34.3714 30.469C32.9343 30.3755 31.5147 29.3827 30.9214 28.0559C30.8731 27.949 30.8291 27.8332 30.7896 27.7219C30.6138 27.2144 31.0928 26.7113 31.6026 26.8582C33.8484 27.4904 36.314 27.3212 38.4411 26.3239C40.8583 25.1886 42.2252 23.0603 41.9131 20.9054C41.6582 19.1289 40.2299 17.5884 38.2697 16.9874C36.481 16.4353 34.4066 16.6312 32.4333 17.535C30.1875 18.5635 28.4119 20.3043 27.4275 22.4415C26.3551 24.77 26.3156 27.4904 27.322 29.7255C28.535 32.4192 31.2027 34.2847 34.1165 34.4761C34.244 34.485 34.367 34.4895 34.4989 34.4895V34.4806ZM32.8816 21.8805C33.2463 21.6089 33.6463 21.3729 34.0682 21.1815C35.1669 20.6783 36.2525 20.5492 37.1271 20.8164C37.6325 20.9722 37.9797 21.3061 38.006 21.4753C38.0412 21.7157 37.5841 22.3079 36.7843 22.6819C35.6811 23.1984 34.389 23.3364 33.176 23.1093C32.5871 22.998 32.3981 22.2367 32.886 21.8805H32.8816Z" fill="#24C57A"/>
</svg>
