<svg width="130" height="68" viewBox="0 0 130 68" fill="none" xmlns="http://www.w3.org/2000/svg">
<path d="M48.8076 27.0436C50.8185 27.0436 52.7184 25.6821 53.485 23.4865L58.9846 7.50441C60.429 3.2973 56.9181 -1.63349 51.6407 0.525263C50.9296 0.819638 50.363 1.45745 50.0964 2.24245L43.6635 20.923C43.3857 21.7203 43.4302 22.6157 43.7968 23.3639C45.0745 25.9519 46.9855 27.0558 48.7964 27.0558L48.8076 27.0436Z" fill="#24C57A"/>
<path d="M75.3503 27.0331C77.3612 27.0331 79.2611 25.6716 80.0277 23.476L85.994 6.14469C86.2606 5.35969 86.2273 4.4643 85.8718 3.72836C83.2275 -1.76665 77.6279 -0.63821 76.1835 3.55664L70.2173 20.9003C69.9395 21.6975 69.984 22.5929 70.3506 23.3411C71.6283 25.9292 73.5393 27.0331 75.3503 27.0331Z" fill="#24C57A"/>
<path d="M128.18 52.5582C127.913 51.4543 126.713 51.0372 125.902 51.7486C122.803 54.4716 119.681 56.3115 115.648 56.52C113.948 56.6058 111.415 56.2501 108.737 52.1534C104.682 45.9592 109.259 32.9577 111.992 25.1935L112.403 24.0283C112.826 22.998 113.214 22.0045 113.548 21.0355C113.903 20.0419 113.425 18.9258 112.503 18.5701L107.904 16.8406C106.148 16.1783 104.248 17.1227 103.493 18.9871C100.793 25.7332 96.0711 33.5587 92.5825 36.7845C87.3495 41.6172 81.7277 45.6771 75.8614 48.8417C63.1068 55.7227 49.7299 57.8937 38.1752 54.95C35.4532 54.2508 31.6645 52.7422 29.0425 49.455C24.8206 44.1562 24.154 35.4476 25.365 27.941C25.5427 27.2174 25.7094 26.5305 25.8538 25.8559C26.1538 24.4821 25.3872 23.1452 24.1317 22.8876C23.3207 22.7159 22.3763 22.5196 21.4319 22.3234L20.5542 22.0412C18.3655 21.3298 16.0656 22.8262 15.6323 25.3039C15.6101 25.402 15.599 25.5002 15.5879 25.586C13.0436 35.6684 8.74392 45.4564 2.95544 53.7725C2.28882 54.7414 1.57776 55.6736 0.855588 56.5936C-0.366548 58.1145 -0.277666 60.4327 1.11113 61.7697C2.08884 62.7018 3.07766 63.634 4.07758 64.5785C5.24417 65.6824 6.9996 65.5352 7.99953 64.2596C11.6326 59.6354 14.7435 54.4961 17.3433 49.3446C18.3766 52.0062 19.7543 54.5084 21.5541 56.7653C25.0206 61.1073 29.998 64.2105 35.942 65.7192C40.3639 66.8476 44.6859 67.326 48.8522 67.326C61.3402 67.326 72.4061 63.0085 80.2611 58.7646C86.1718 55.5755 91.8381 51.5892 97.1599 46.9037C97.3377 51.074 98.3376 55.0849 100.649 58.6051C105.415 65.8909 111.115 67.5468 115.314 67.5468C115.592 67.5468 115.87 67.5468 116.136 67.5222C121.147 67.2647 125.169 65.5475 128.669 63.1189C129.735 62.3829 130.224 60.9601 129.902 59.6109L128.213 52.5336L128.18 52.5582Z" fill="#24C57A"/>
</svg>
