<svg width="134" height="67" viewBox="0 0 134 67" fill="none" xmlns="http://www.w3.org/2000/svg">
<g id="&#236;&#181;&#156;&#236;&#162;&#133;&#235;&#179;&#184;">
<g id="Group">
<path id="Vector" d="M50.927 26.5628C52.9845 26.5628 54.9284 25.2255 55.7128 23.0689L61.3398 7.37064C62.8176 3.23825 59.2254 -1.60496 53.8257 0.515453C53.0982 0.8046 52.5185 1.43108 52.2456 2.20214L45.6637 20.5509C45.3795 21.334 45.425 22.2135 45.8001 22.9484C47.1074 25.4905 49.0627 26.5748 50.9156 26.5748L50.927 26.5628Z" fill="#24C57A"/>
<path id="Vector_2" d="M78.0845 26.5627C80.1421 26.5627 82.086 25.2254 82.8704 23.0688L88.9748 6.04532C89.2476 5.27426 89.2135 4.39477 88.8498 3.6719C86.1442 -1.7255 80.4149 -0.617108 78.9371 3.50323L72.8327 20.5388C72.5485 21.3219 72.5939 22.2014 72.9691 22.9363C74.2764 25.4784 76.2316 26.5627 78.0845 26.5627Z" fill="#24C57A"/>
<path id="Vector_3" d="M132.138 51.6344C131.865 50.5501 130.637 50.1404 129.808 50.8392C126.636 53.5138 123.442 55.321 119.315 55.5258C117.576 55.6101 114.984 55.2607 112.245 51.2368C108.095 45.1527 112.779 32.382 115.575 24.7558L115.996 23.6112C116.428 22.5992 116.826 21.6233 117.167 20.6716C117.531 19.6957 117.042 18.5993 116.098 18.25L111.392 16.5512C109.596 15.9006 107.652 16.8283 106.879 18.6596C104.117 25.2859 99.2854 32.9723 95.7159 36.1409C90.3617 40.8877 84.6097 44.8756 78.6075 47.9839C65.5574 54.7427 51.8707 56.8752 40.0483 53.9837C37.2632 53.297 33.3868 51.8151 30.704 48.5863C26.3843 43.3816 25.7022 34.8277 26.9413 27.4545C27.1232 26.7436 27.2937 26.069 27.4415 25.4063C27.7484 24.057 26.9641 22.7438 25.6795 22.4908C24.8497 22.3221 23.8834 22.1293 22.9172 21.9366L22.0191 21.6595C19.7797 20.9607 17.4266 22.4305 16.9832 24.8642C16.9605 24.9606 16.9491 25.057 16.9377 25.1413C14.3345 35.0446 9.93525 44.6587 4.01267 52.8271C3.33061 53.7789 2.60308 54.6945 1.86418 55.5981C0.61373 57.092 0.704672 59.369 2.12563 60.6822C3.12599 61.5979 4.13772 62.5135 5.16081 63.4412C6.35442 64.5255 8.15052 64.3809 9.17361 63.1279C12.8908 58.5859 16.0738 53.5379 18.7338 48.4778C19.791 51.0922 21.2006 53.55 23.0422 55.7668C26.5889 60.0317 31.6817 63.0798 37.7634 64.5616C42.2877 65.67 46.7098 66.1399 50.9726 66.1399C63.7499 66.1399 75.0722 61.8991 83.1091 57.7305C89.1568 54.5981 94.9543 50.6826 100.399 46.0803C100.581 50.1766 101.604 54.1162 103.969 57.5739C108.846 64.7303 114.677 66.3568 118.974 66.3568C119.258 66.3568 119.543 66.3568 119.815 66.3327C124.942 66.0797 129.057 64.393 132.638 62.0075C133.73 61.2846 134.23 59.8871 133.9 58.5618L132.172 51.6103L132.138 51.6344Z" fill="#24C57A"/>
</g>
</g>
</svg>
